G04 #@! TF.GenerationSoftware,KiCad,Pcbnew,7.0.5*
G04 #@! TF.CreationDate,2023-09-30T13:58:08+09:00*
G04 #@! TF.ProjectId,thorium_pcbr,74686f72-6975-46d5-9f70-6362722e6b69,rev?*
G04 #@! TF.SameCoordinates,Original*
G04 #@! TF.FileFunction,Legend,Top*
G04 #@! TF.FilePolarity,Positive*
%FSLAX46Y46*%
G04 Gerber Fmt 4.6, Leading zero omitted, Abs format (unit mm)*
G04 Created by KiCad (PCBNEW 7.0.5) date 2023-09-30 13:58:08*
%MOMM*%
%LPD*%
G01*
G04 APERTURE LIST*
G04 Aperture macros list*
%AMRoundRect*
0 Rectangle with rounded corners*
0 $1 Rounding radius*
0 $2 $3 $4 $5 $6 $7 $8 $9 X,Y pos of 4 corners*
0 Add a 4 corners polygon primitive as box body*
4,1,4,$2,$3,$4,$5,$6,$7,$8,$9,$2,$3,0*
0 Add four circle primitives for the rounded corners*
1,1,$1+$1,$2,$3*
1,1,$1+$1,$4,$5*
1,1,$1+$1,$6,$7*
1,1,$1+$1,$8,$9*
0 Add four rect primitives between the rounded corners*
20,1,$1+$1,$2,$3,$4,$5,0*
20,1,$1+$1,$4,$5,$6,$7,0*
20,1,$1+$1,$6,$7,$8,$9,0*
20,1,$1+$1,$8,$9,$2,$3,0*%
G04 Aperture macros list end*
%ADD10C,0.150000*%
%ADD11C,0.120000*%
%ADD12C,1.524000*%
%ADD13O,1.500000X2.500000*%
%ADD14O,1.750000X1.200000*%
%ADD15RoundRect,0.250000X-0.625000X0.350000X-0.625000X-0.350000X0.625000X-0.350000X0.625000X0.350000X0*%
%ADD16C,2.000000*%
%ADD17C,3.000000*%
%ADD18C,4.000000*%
%ADD19O,1.000000X1.300000*%
G04 APERTURE END LIST*
D10*
X115231009Y-100644761D02*
X115278628Y-100501904D01*
X115278628Y-100501904D02*
X115326247Y-100454285D01*
X115326247Y-100454285D02*
X115421485Y-100406666D01*
X115421485Y-100406666D02*
X115564342Y-100406666D01*
X115564342Y-100406666D02*
X115659580Y-100454285D01*
X115659580Y-100454285D02*
X115707200Y-100501904D01*
X115707200Y-100501904D02*
X115754819Y-100597142D01*
X115754819Y-100597142D02*
X115754819Y-100978094D01*
X115754819Y-100978094D02*
X114754819Y-100978094D01*
X114754819Y-100978094D02*
X114754819Y-100644761D01*
X114754819Y-100644761D02*
X114802438Y-100549523D01*
X114802438Y-100549523D02*
X114850057Y-100501904D01*
X114850057Y-100501904D02*
X114945295Y-100454285D01*
X114945295Y-100454285D02*
X115040533Y-100454285D01*
X115040533Y-100454285D02*
X115135771Y-100501904D01*
X115135771Y-100501904D02*
X115183390Y-100549523D01*
X115183390Y-100549523D02*
X115231009Y-100644761D01*
X115231009Y-100644761D02*
X115231009Y-100978094D01*
X115754819Y-99454285D02*
X115754819Y-100025713D01*
X115754819Y-99739999D02*
X114754819Y-99739999D01*
X114754819Y-99739999D02*
X114897676Y-99835237D01*
X114897676Y-99835237D02*
X114992914Y-99930475D01*
X114992914Y-99930475D02*
X115040533Y-100025713D01*
D11*
X114210000Y-97180000D02*
X106390000Y-97180000D01*
X112610000Y-97180000D02*
X112610000Y-98100000D01*
X106390000Y-97180000D02*
X106390000Y-103300000D01*
X110250000Y-97940000D02*
X108650000Y-97940000D01*
X108650000Y-97940000D02*
X108650000Y-98940000D01*
X114210000Y-98100000D02*
X114210000Y-97180000D01*
X112610000Y-98100000D02*
X114210000Y-98100000D01*
X112610000Y-98380000D02*
X112610000Y-98100000D01*
X112610000Y-98380000D02*
X113825000Y-98380000D01*
X108650000Y-98440000D02*
X106390000Y-98440000D01*
X110250000Y-98940000D02*
X110250000Y-97940000D01*
X108650000Y-98940000D02*
X110250000Y-98940000D01*
X108650000Y-98940000D02*
X106390000Y-98940000D01*
X110750000Y-99740000D02*
X110750000Y-100740000D01*
X106390000Y-99740000D02*
X110750000Y-99740000D01*
X110750000Y-100740000D02*
X106390000Y-100740000D01*
X110250000Y-101540000D02*
X110250000Y-102540000D01*
X108650000Y-101540000D02*
X110250000Y-101540000D01*
X114210000Y-102380000D02*
X112610000Y-102380000D01*
X112610000Y-102380000D02*
X112610000Y-102100000D01*
X110250000Y-102540000D02*
X108650000Y-102540000D01*
X108650000Y-102540000D02*
X108650000Y-101540000D01*
X114210000Y-103300000D02*
X114210000Y-102380000D01*
X112610000Y-103300000D02*
X112610000Y-102380000D01*
X106390000Y-103300000D02*
X114210000Y-103300000D01*
%LPC*%
D12*
X121620000Y-91000000D03*
X119080000Y-91000000D03*
X116540000Y-91000000D03*
X114000000Y-91000000D03*
X111460000Y-91000000D03*
X108920000Y-91000000D03*
X106380000Y-91000000D03*
X106380000Y-106240000D03*
X108920000Y-106240000D03*
X111460000Y-106240000D03*
X114000000Y-106240000D03*
X116540000Y-106240000D03*
X119080000Y-106240000D03*
X121620000Y-106240000D03*
D13*
X114317000Y-94675000D03*
X116222000Y-94675000D03*
D14*
X112750000Y-101240000D03*
D15*
X112750000Y-99240000D03*
D16*
X92420000Y-59500000D03*
D17*
X93690000Y-56960000D03*
D18*
X97500000Y-59500000D03*
D17*
X100040000Y-54420000D03*
D16*
X102580000Y-59500000D03*
X64580000Y-97500000D03*
D17*
X63310000Y-100040000D03*
D18*
X59500000Y-97500000D03*
D17*
X56960000Y-102580000D03*
D16*
X54420000Y-97500000D03*
X35420000Y-40500000D03*
D17*
X36690000Y-37960000D03*
D18*
X40500000Y-40500000D03*
D17*
X43040000Y-35420000D03*
D16*
X45580000Y-40500000D03*
X54420000Y-59500000D03*
D17*
X55690000Y-56960000D03*
D18*
X59500000Y-59500000D03*
D17*
X62040000Y-54420000D03*
D16*
X64580000Y-59500000D03*
X73420000Y-59500000D03*
D17*
X74690000Y-56960000D03*
D18*
X78500000Y-59500000D03*
D17*
X81040000Y-54420000D03*
D16*
X83580000Y-59500000D03*
X73420000Y-78500000D03*
D17*
X74690000Y-75960000D03*
D18*
X78500000Y-78500000D03*
D17*
X81040000Y-73420000D03*
D16*
X83580000Y-78500000D03*
D19*
X124650000Y-66500000D03*
X124650000Y-69000000D03*
X124650000Y-71500000D03*
D16*
X35420000Y-59500000D03*
D17*
X36690000Y-56960000D03*
D18*
X40500000Y-59500000D03*
D17*
X43040000Y-54420000D03*
D16*
X45580000Y-59500000D03*
X92420000Y-78500000D03*
D17*
X93690000Y-75960000D03*
D18*
X97500000Y-78500000D03*
D17*
X100040000Y-73420000D03*
D16*
X102580000Y-78500000D03*
X111420000Y-78500000D03*
D17*
X112690000Y-75960000D03*
D18*
X116500000Y-78500000D03*
D17*
X119040000Y-73420000D03*
D16*
X121580000Y-78500000D03*
X54420000Y-78500000D03*
D17*
X55690000Y-75960000D03*
D18*
X59500000Y-78500000D03*
D17*
X62040000Y-73420000D03*
D16*
X64580000Y-78500000D03*
X111420000Y-59500000D03*
D17*
X112690000Y-56960000D03*
D18*
X116500000Y-59500000D03*
D17*
X119040000Y-54420000D03*
D16*
X121580000Y-59500000D03*
X45580000Y-97500000D03*
D17*
X44310000Y-100040000D03*
D18*
X40500000Y-97500000D03*
D17*
X37960000Y-102580000D03*
D16*
X35420000Y-97500000D03*
X54420000Y-40500000D03*
D17*
X55690000Y-37960000D03*
D18*
X59500000Y-40500000D03*
D17*
X62040000Y-35420000D03*
D16*
X64580000Y-40500000D03*
X35420000Y-78500000D03*
D17*
X36690000Y-75960000D03*
D18*
X40500000Y-78500000D03*
D17*
X43040000Y-73420000D03*
D16*
X45580000Y-78500000D03*
X111420000Y-40500000D03*
D17*
X112690000Y-37960000D03*
D18*
X116500000Y-40500000D03*
D17*
X119040000Y-35420000D03*
D16*
X121580000Y-40500000D03*
X92420000Y-40500000D03*
D17*
X93690000Y-37960000D03*
D18*
X97500000Y-40500000D03*
D17*
X100040000Y-35420000D03*
D16*
X102580000Y-40500000D03*
X73420000Y-40500000D03*
D17*
X74690000Y-37960000D03*
D18*
X78500000Y-40500000D03*
D17*
X81040000Y-35420000D03*
D16*
X83580000Y-40500000D03*
%LPD*%
M02*
