M48
; DRILL file {KiCad 7.0.5} date Sat Sep 30 13:58:19 2023
; FORMAT={-:-/ absolute / metric / decimal}
; #@! TF.CreationDate,2023-09-30T13:58:19+09:00
; #@! TF.GenerationSoftware,Kicad,Pcbnew,7.0.5
; #@! TF.FileFunction,Plated,1,2,PTH
FMAT,2
METRIC
; #@! TA.AperFunction,Plated,PTH,ViaDrill
T1C0.400
; #@! TA.AperFunction,Plated,PTH,ComponentDrill
T2C0.500
; #@! TA.AperFunction,Plated,PTH,ComponentDrill
T3C0.700
; #@! TA.AperFunction,Plated,PTH,ComponentDrill
T4C0.750
; #@! TA.AperFunction,Plated,PTH,ComponentDrill
T5C0.813
%
G90
G05
T1
X34.66Y-54.3
X34.69Y-42.2
X34.71Y-73.26
X34.73Y-61.18
X34.92Y-86.02
X34.92Y-94.93
X34.93Y-80.14
X35.0Y-83.67
X35.33Y-99.67
X37.42Y-97.21
X38.95Y-95.22
X42.05Y-42.75
X42.09Y-61.72
X42.11Y-80.72
X43.49Y-59.92
X43.54Y-40.63
X43.54Y-78.85
X45.7Y-38.38
X45.75Y-76.4
X45.85Y-57.34
X52.48Y-92.94
X52.5Y-40.03
X52.5Y-54.76
X52.5Y-59.03
X52.5Y-73.72
X52.5Y-78.03
X52.5Y-84.671
X53.71Y-82.84
X54.34Y-99.65
X56.45Y-90.85
X56.47Y-97.33
X58.06Y-95.14
X61.07Y-42.78
X61.08Y-61.75
X61.11Y-80.65
X62.48Y-59.88
X62.54Y-40.83
X62.55Y-78.87
X64.76Y-38.39
X64.82Y-57.36
X64.82Y-76.37
X65.4Y-95.96
X71.49Y-78.03
X71.49Y-84.671
X71.5Y-40.03
X71.5Y-54.81
X71.5Y-59.03
X71.5Y-73.81
X80.04Y-80.74
X80.05Y-42.84
X80.1Y-61.67
X81.49Y-59.92
X81.51Y-40.84
X81.51Y-78.9
X81.55Y-47.15
X83.77Y-38.34
X83.81Y-76.42
X83.86Y-57.34
X89.35Y-82.79
X90.5Y-40.03
X90.5Y-54.81
X90.5Y-59.03
X90.5Y-73.81
X90.5Y-78.03
X90.5Y-84.671
X91.23Y-79.88
X99.02Y-61.84
X99.06Y-42.77
X100.53Y-40.81
X100.55Y-66.16
X100.58Y-59.76
X102.76Y-57.39
X102.77Y-38.37
X107.41Y-96.33
X107.41Y-104.47
X107.78Y-85.0
X108.35Y-88.37
X108.41Y-92.73
X109.5Y-40.02
X109.5Y-54.81
X109.5Y-59.03
X109.5Y-73.81
X109.5Y-78.03
X109.5Y-84.671
X110.64Y-104.5
X110.79Y-85.17
X112.5Y-94.22
X112.83Y-97.57
X114.58Y-100.59
X116.73Y-89.25
X117.99Y-61.82
X118.06Y-42.74
X118.06Y-80.77
X119.51Y-59.84
X119.51Y-78.9
X119.53Y-40.88
X119.83Y-92.74
X120.16Y-89.29
X121.76Y-57.35
X121.77Y-38.37
X121.81Y-76.41
X122.83Y-89.76
X123.31Y-106.71
X125.75Y-90.35
X125.76Y-68.35
T3
X114.317Y-94.175
X116.222Y-94.175
T4
X112.75Y-99.24
X112.75Y-101.24
T5
X106.38Y-91.0
X106.38Y-106.24
X108.92Y-91.0
X108.92Y-106.24
X111.46Y-91.0
X111.46Y-106.24
X114.0Y-91.0
X114.0Y-106.24
X116.54Y-91.0
X116.54Y-106.24
X119.08Y-91.0
X119.08Y-106.24
X121.62Y-91.0
X121.62Y-106.24
T2
X124.65Y-66.35G85X124.65Y-66.65
G05
X124.65Y-68.85G85X124.65Y-69.15
G05
X124.65Y-71.35G85X124.65Y-71.65
G05
T0
M30
