M48
; DRILL file {KiCad 7.0.5} date Sat Sep 30 13:58:19 2023
; FORMAT={-:-/ absolute / metric / decimal}
; #@! TF.CreationDate,2023-09-30T13:58:19+09:00
; #@! TF.GenerationSoftware,Kicad,Pcbnew,7.0.5
; #@! TF.FileFunction,NonPlated,1,2,NPTH
FMAT,2
METRIC
; #@! TA.AperFunction,NonPlated,NPTH,ComponentDrill
T1C2.000
; #@! TA.AperFunction,NonPlated,NPTH,ComponentDrill
T2C3.000
; #@! TA.AperFunction,NonPlated,NPTH,ComponentDrill
T3C4.000
%
G90
G05
T1
X35.42Y-40.5
X35.42Y-59.5
X35.42Y-78.5
X35.42Y-97.5
X45.58Y-40.5
X45.58Y-59.5
X45.58Y-78.5
X45.58Y-97.5
X54.42Y-40.5
X54.42Y-59.5
X54.42Y-78.5
X54.42Y-97.5
X64.58Y-40.5
X64.58Y-59.5
X64.58Y-78.5
X64.58Y-97.5
X73.42Y-40.5
X73.42Y-59.5
X73.42Y-78.5
X83.58Y-40.5
X83.58Y-59.5
X83.58Y-78.5
X92.42Y-40.5
X92.42Y-59.5
X92.42Y-78.5
X102.58Y-40.5
X102.58Y-59.5
X102.58Y-78.5
X111.42Y-40.5
X111.42Y-59.5
X111.42Y-78.5
X121.58Y-40.5
X121.58Y-59.5
X121.58Y-78.5
T2
X36.69Y-37.96
X36.69Y-56.96
X36.69Y-75.96
X37.96Y-102.58
X43.04Y-35.42
X43.04Y-54.42
X43.04Y-73.42
X44.31Y-100.04
X55.69Y-37.96
X55.69Y-56.96
X55.69Y-75.96
X56.96Y-102.58
X62.04Y-35.42
X62.04Y-54.42
X62.04Y-73.42
X63.31Y-100.04
X74.69Y-37.96
X74.69Y-56.96
X74.69Y-75.96
X81.04Y-35.42
X81.04Y-54.42
X81.04Y-73.42
X93.69Y-37.96
X93.69Y-56.96
X93.69Y-75.96
X100.04Y-35.42
X100.04Y-54.42
X100.04Y-73.42
X112.69Y-37.96
X112.69Y-56.96
X112.69Y-75.96
X119.04Y-35.42
X119.04Y-54.42
X119.04Y-73.42
T3
X40.5Y-40.5
X40.5Y-59.5
X40.5Y-78.5
X40.5Y-97.5
X59.5Y-40.5
X59.5Y-59.5
X59.5Y-78.5
X59.5Y-97.5
X78.5Y-40.5
X78.5Y-59.5
X78.5Y-78.5
X97.5Y-40.5
X97.5Y-59.5
X97.5Y-78.5
X116.5Y-40.5
X116.5Y-59.5
X116.5Y-78.5
T0
M30
