G04 #@! TF.GenerationSoftware,KiCad,Pcbnew,7.0.5*
G04 #@! TF.CreationDate,2023-09-30T13:58:08+09:00*
G04 #@! TF.ProjectId,thorium_pcbr,74686f72-6975-46d5-9f70-6362722e6b69,rev?*
G04 #@! TF.SameCoordinates,Original*
G04 #@! TF.FileFunction,Paste,Bot*
G04 #@! TF.FilePolarity,Positive*
%FSLAX46Y46*%
G04 Gerber Fmt 4.6, Leading zero omitted, Abs format (unit mm)*
G04 Created by KiCad (PCBNEW 7.0.5) date 2023-09-30 13:58:08*
%MOMM*%
%LPD*%
G01*
G04 APERTURE LIST*
%ADD10R,0.950000X1.200000*%
%ADD11R,2.400000X3.000000*%
%ADD12R,2.500000X2.800000*%
G04 APERTURE END LIST*
D10*
X56450000Y-92053125D03*
X56450000Y-95503125D03*
D11*
X90500000Y-56920000D03*
D12*
X103250000Y-54480000D03*
D11*
X66500000Y-100080000D03*
D12*
X53750000Y-102520000D03*
D11*
X33500000Y-37920000D03*
D12*
X46250000Y-35480000D03*
D11*
X52500000Y-56920000D03*
D12*
X65250000Y-54480000D03*
D11*
X71500000Y-56920000D03*
D12*
X84250000Y-54480000D03*
D11*
X71500000Y-75920000D03*
D12*
X84250000Y-73480000D03*
D11*
X33500000Y-56920000D03*
D12*
X46250000Y-54480000D03*
D11*
X90500000Y-75920000D03*
D12*
X103250000Y-73480000D03*
D11*
X109500000Y-75920000D03*
D12*
X122250000Y-73480000D03*
D10*
X81550000Y-64946875D03*
X81550000Y-61496875D03*
D11*
X52500000Y-75920000D03*
D12*
X65250000Y-73480000D03*
D10*
X100550000Y-45946875D03*
X100550000Y-42496875D03*
X43550000Y-64946875D03*
X43550000Y-61496875D03*
X43550000Y-45833438D03*
X43550000Y-42383438D03*
X100550000Y-83946875D03*
X100550000Y-80496875D03*
X81550000Y-45946875D03*
X81550000Y-42496875D03*
X81550000Y-83946875D03*
X81550000Y-80496875D03*
X119550000Y-83946875D03*
X119550000Y-80496875D03*
D11*
X109500000Y-56920000D03*
D12*
X122250000Y-54480000D03*
D10*
X119550000Y-64946875D03*
X119550000Y-61496875D03*
X100550000Y-64946875D03*
X100550000Y-61496875D03*
X37450000Y-92053125D03*
X37450000Y-95503125D03*
X62550000Y-45946875D03*
X62550000Y-42496875D03*
D11*
X47500000Y-100080000D03*
D12*
X34750000Y-102520000D03*
D10*
X43550000Y-83946875D03*
X43550000Y-80496875D03*
X119550000Y-45946875D03*
X119550000Y-42496875D03*
X62550000Y-83946875D03*
X62550000Y-80496875D03*
D11*
X52500000Y-37920000D03*
D12*
X65250000Y-35480000D03*
D11*
X33500000Y-75920000D03*
D12*
X46250000Y-73480000D03*
D11*
X109500000Y-37920000D03*
D12*
X122250000Y-35480000D03*
D10*
X62550000Y-64946875D03*
X62550000Y-61496875D03*
D11*
X90500000Y-37920000D03*
D12*
X103250000Y-35480000D03*
D11*
X71500000Y-37920000D03*
D12*
X84250000Y-35480000D03*
M02*
