G04 #@! TF.GenerationSoftware,KiCad,Pcbnew,7.0.5*
G04 #@! TF.CreationDate,2023-09-30T13:58:08+09:00*
G04 #@! TF.ProjectId,thorium_pcbr,74686f72-6975-46d5-9f70-6362722e6b69,rev?*
G04 #@! TF.SameCoordinates,Original*
G04 #@! TF.FileFunction,Soldermask,Top*
G04 #@! TF.FilePolarity,Negative*
%FSLAX46Y46*%
G04 Gerber Fmt 4.6, Leading zero omitted, Abs format (unit mm)*
G04 Created by KiCad (PCBNEW 7.0.5) date 2023-09-30 13:58:08*
%MOMM*%
%LPD*%
G01*
G04 APERTURE LIST*
G04 Aperture macros list*
%AMRoundRect*
0 Rectangle with rounded corners*
0 $1 Rounding radius*
0 $2 $3 $4 $5 $6 $7 $8 $9 X,Y pos of 4 corners*
0 Add a 4 corners polygon primitive as box body*
4,1,4,$2,$3,$4,$5,$6,$7,$8,$9,$2,$3,0*
0 Add four circle primitives for the rounded corners*
1,1,$1+$1,$2,$3*
1,1,$1+$1,$4,$5*
1,1,$1+$1,$6,$7*
1,1,$1+$1,$8,$9*
0 Add four rect primitives between the rounded corners*
20,1,$1+$1,$2,$3,$4,$5,0*
20,1,$1+$1,$4,$5,$6,$7,0*
20,1,$1+$1,$6,$7,$8,$9,0*
20,1,$1+$1,$8,$9,$2,$3,0*%
G04 Aperture macros list end*
%ADD10C,1.524000*%
%ADD11O,1.500000X2.500000*%
%ADD12O,1.750000X1.200000*%
%ADD13RoundRect,0.250000X-0.625000X0.350000X-0.625000X-0.350000X0.625000X-0.350000X0.625000X0.350000X0*%
%ADD14C,2.000000*%
%ADD15C,3.000000*%
%ADD16C,4.000000*%
%ADD17O,1.000000X1.300000*%
G04 APERTURE END LIST*
D10*
X121620000Y-91000000D03*
X119080000Y-91000000D03*
X116540000Y-91000000D03*
X114000000Y-91000000D03*
X111460000Y-91000000D03*
X108920000Y-91000000D03*
X106380000Y-91000000D03*
X106380000Y-106240000D03*
X108920000Y-106240000D03*
X111460000Y-106240000D03*
X114000000Y-106240000D03*
X116540000Y-106240000D03*
X119080000Y-106240000D03*
X121620000Y-106240000D03*
D11*
X114317000Y-94675000D03*
X116222000Y-94675000D03*
D12*
X112750000Y-101240000D03*
D13*
X112750000Y-99240000D03*
D14*
X92420000Y-59500000D03*
D15*
X93690000Y-56960000D03*
D16*
X97500000Y-59500000D03*
D15*
X100040000Y-54420000D03*
D14*
X102580000Y-59500000D03*
X64580000Y-97500000D03*
D15*
X63310000Y-100040000D03*
D16*
X59500000Y-97500000D03*
D15*
X56960000Y-102580000D03*
D14*
X54420000Y-97500000D03*
X35420000Y-40500000D03*
D15*
X36690000Y-37960000D03*
D16*
X40500000Y-40500000D03*
D15*
X43040000Y-35420000D03*
D14*
X45580000Y-40500000D03*
X54420000Y-59500000D03*
D15*
X55690000Y-56960000D03*
D16*
X59500000Y-59500000D03*
D15*
X62040000Y-54420000D03*
D14*
X64580000Y-59500000D03*
X73420000Y-59500000D03*
D15*
X74690000Y-56960000D03*
D16*
X78500000Y-59500000D03*
D15*
X81040000Y-54420000D03*
D14*
X83580000Y-59500000D03*
X73420000Y-78500000D03*
D15*
X74690000Y-75960000D03*
D16*
X78500000Y-78500000D03*
D15*
X81040000Y-73420000D03*
D14*
X83580000Y-78500000D03*
D17*
X124650000Y-66500000D03*
X124650000Y-69000000D03*
X124650000Y-71500000D03*
D14*
X35420000Y-59500000D03*
D15*
X36690000Y-56960000D03*
D16*
X40500000Y-59500000D03*
D15*
X43040000Y-54420000D03*
D14*
X45580000Y-59500000D03*
X92420000Y-78500000D03*
D15*
X93690000Y-75960000D03*
D16*
X97500000Y-78500000D03*
D15*
X100040000Y-73420000D03*
D14*
X102580000Y-78500000D03*
X111420000Y-78500000D03*
D15*
X112690000Y-75960000D03*
D16*
X116500000Y-78500000D03*
D15*
X119040000Y-73420000D03*
D14*
X121580000Y-78500000D03*
X54420000Y-78500000D03*
D15*
X55690000Y-75960000D03*
D16*
X59500000Y-78500000D03*
D15*
X62040000Y-73420000D03*
D14*
X64580000Y-78500000D03*
X111420000Y-59500000D03*
D15*
X112690000Y-56960000D03*
D16*
X116500000Y-59500000D03*
D15*
X119040000Y-54420000D03*
D14*
X121580000Y-59500000D03*
X45580000Y-97500000D03*
D15*
X44310000Y-100040000D03*
D16*
X40500000Y-97500000D03*
D15*
X37960000Y-102580000D03*
D14*
X35420000Y-97500000D03*
X54420000Y-40500000D03*
D15*
X55690000Y-37960000D03*
D16*
X59500000Y-40500000D03*
D15*
X62040000Y-35420000D03*
D14*
X64580000Y-40500000D03*
X35420000Y-78500000D03*
D15*
X36690000Y-75960000D03*
D16*
X40500000Y-78500000D03*
D15*
X43040000Y-73420000D03*
D14*
X45580000Y-78500000D03*
X111420000Y-40500000D03*
D15*
X112690000Y-37960000D03*
D16*
X116500000Y-40500000D03*
D15*
X119040000Y-35420000D03*
D14*
X121580000Y-40500000D03*
X92420000Y-40500000D03*
D15*
X93690000Y-37960000D03*
D16*
X97500000Y-40500000D03*
D15*
X100040000Y-35420000D03*
D14*
X102580000Y-40500000D03*
X73420000Y-40500000D03*
D15*
X74690000Y-37960000D03*
D16*
X78500000Y-40500000D03*
D15*
X81040000Y-35420000D03*
D14*
X83580000Y-40500000D03*
M02*
