<?xml version="1.0" encoding="UTF-8" standalone="no"?>
<!-- Generator: Adobe Illustrator 26.0.2, SVG Export Plug-In . SVG Version: 6.00 Build 0)  -->

<svg
   version="1.1"
   x="0px"
   y="0px"
   viewBox="0 0 1889.7638 1133.8582"
   xml:space="preserve"
   id="svg2217"
   sodipodi:docname="thorium_poron_rev2.svg"
   width="500mm"
   height="300mm"
   inkscape:version="1.4.2 (f4327f4, 2025-05-13)"
   xmlns:inkscape="http://www.inkscape.org/namespaces/inkscape"
   xmlns:sodipodi="http://sodipodi.sourceforge.net/DTD/sodipodi-0.dtd"
   xmlns="http://www.w3.org/2000/svg"
   xmlns:svg="http://www.w3.org/2000/svg"><defs
   id="defs2221" /><sodipodi:namedview
   id="namedview2219"
   pagecolor="#ffffff"
   bordercolor="#666666"
   borderopacity="1.0"
   inkscape:pageshadow="2"
   inkscape:pageopacity="0.0"
   inkscape:pagecheckerboard="0"
   showgrid="false"
   units="mm"
   width="500mm"
   inkscape:zoom="1.1580789"
   inkscape:cx="844.07033"
   inkscape:cy="652.37354"
   inkscape:window-width="3840"
   inkscape:window-height="2071"
   inkscape:window-x="-9"
   inkscape:window-y="-9"
   inkscape:window-maximized="1"
   inkscape:current-layer="layer1"
   inkscape:document-units="mm"
   inkscape:showpageshadow="2"
   inkscape:deskcolor="#d1d1d1"
   showguides="false" />
<style
   type="text/css"
   id="style2">
	.st0{fill:none;stroke:#0000FF;stroke-width:1.000000e-03;stroke-miterlimit:10;}
	.st1{fill:none;stroke:#FF0000;stroke-width:3.000000e-03;stroke-linecap:round;stroke-linejoin:round;stroke-miterlimit:10;}
	.st2{fill:none;stroke:#FF0000;stroke-width:3.000000e-03;stroke-miterlimit:11.339;}
	.st3{display:none;}
	.st4{display:inline;}
	.st5{fill:#FF0000;}
	.st6{fill:#0000FF;}
	.st7{fill:#336699;}
	.st8{fill:#00FFFF;}
	.st9{fill:#00FF00;}
	.st10{fill:none;stroke:#000000;stroke-miterlimit:10;}
</style>
<g
   inkscape:groupmode="layer"
   id="layer7"
   inkscape:label="Cut AREA"
   style="display:inline"
   inkscape:highlight-color="#000000"><path
     d="M 8.2286949,8.2294489 H 1881.5351 V 1125.6303 H 8.2286949 Z"
     style="display:inline;fill:none;stroke:#000000;stroke-width:1.33928;stroke-linecap:butt;stroke-linejoin:miter;stroke-miterlimit:10;stroke-dasharray:none;stroke-opacity:1"
     id="CUTAREA" /></g><g
   inkscape:groupmode="layer"
   id="layer2"
   inkscape:label="Cut2"
   inkscape:highlight-color="#0000ff" /><g
   inkscape:groupmode="layer"
   id="layer1"
   inkscape:label="Cut1"
   inkscape:highlight-color="#ff0000"><g
     id="ML"
     inkscape:label="ML"><path
       id="rect1-8-5"
       style="fill:none;fill-opacity:0.3;stroke:#ff0000;stroke-width:0.00229382;stroke-dasharray:none;stroke-opacity:1"
       d="m 1258.3963,396.66213 v 15.30664 h -1.7011 v 22.67578 h 1.7011 v 15.30664 h 47.9414 l 6.4161,6.41601 a 8.6922598,8.6922598 0 0 0 -0.5,2.8457 8.6922598,8.6922598 0 0 0 0.5,2.84571 l -6.4161,6.41601 h -47.9414 v 15.30664 h -1.7011 v 22.67578 h 1.7011 v 15.30664 h 53.2871 v -15.30664 h 1.7012 v -22.67578 h -1.7012 v -9.96093 l 6.4161,-6.41602 a 8.6922598,8.6922598 0 0 0 2.8457,0.5 8.6922598,8.6922598 0 0 0 2.8457,-0.5 l 6.416,6.41602 v 9.96093 h -1.7012 v 22.67578 h 1.7012 v 15.30664 h 53.2871 v -15.30664 h 1.7012 v -22.67578 h -1.7012 v -15.30664 h -47.9414 l -6.416,-6.41601 a 8.6922598,8.6922598 0 0 0 0.5,-2.84571 8.6922598,8.6922598 0 0 0 -0.4864,-2.86132 l 6.4024,-6.40039 h 47.9414 v -15.30664 h 1.7012 v -22.67578 h -1.7012 v -15.30664 h -53.2871 v 15.30664 h -1.7012 v 22.67578 h 1.7012 v 9.96093 l -6.4004,6.40235 a 8.6922598,8.6922598 0 0 0 -2.8613,-0.48633 8.6922598,8.6922598 0 0 0 -2.8457,0.5 l -6.4161,-6.41602 v -9.96093 h 1.7012 v -22.67578 h -1.7012 v -15.30664 z"
       inkscape:label="ML_SWITCH04050910" /><path
       id="rect1-3-90-6"
       style="fill:none;fill-opacity:0.3;stroke:#ff0000;stroke-width:0.00229382;stroke-dasharray:none;stroke-opacity:1"
       d="m 1402.0174,396.66213 v 15.30664 h -1.7012 v 22.67578 h 1.7012 v 15.30664 h 47.9434 l 6.414,6.41406 a 8.6922598,8.6922598 0 0 0 -0.5,2.84765 8.6922598,8.6922598 0 0 0 0.5,2.84766 l -6.414,6.41406 h -47.9434 v 15.30664 h -1.7012 v 22.67578 h 1.7012 v 15.30664 h 53.2891 v -15.30664 h 1.7012 v -22.67578 h -1.7012 v -9.96289 l 6.414,-6.41406 a 8.6922598,8.6922598 0 0 0 2.8477,0.5 8.6922598,8.6922598 0 0 0 2.8457,-0.5 l 6.4141,6.41406 v 9.96289 h -1.7012 v 22.67578 h 1.7012 v 15.30664 h 53.289 v -15.30664 h 1.7012 v -22.67578 h -1.7012 v -15.30664 h -47.9433 l -6.4141,-6.41406 a 8.6922598,8.6922598 0 0 0 0.5,-2.84766 8.6922598,8.6922598 0 0 0 -0.4863,-2.86132 l 6.4004,-6.40039 h 47.9433 v -15.30664 h 1.7012 v -22.67578 h -1.7012 v -15.30664 h -53.289 v 15.30664 h -1.7012 v 22.67578 h 1.7012 v 9.96289 l -6.4004,6.40039 a 8.6922598,8.6922598 0 0 0 -2.8594,-0.48633 8.6922598,8.6922598 0 0 0 -2.8477,0.5 l -6.414,-6.41406 v -9.96289 h 1.7012 v -22.67578 h -1.7012 v -15.30664 z"
       inkscape:label="ML_SWITCH14151617" /><path
       id="rect1-6-0-3-4"
       style="fill:none;fill-opacity:0.3;stroke:#ff0000;stroke-width:0.00229382;stroke-dasharray:none;stroke-opacity:1"
       d="m 1258.3956,540.28499 v 15.30664 h -1.7012 v 22.67578 h 1.7012 v 15.30664 h 53.2883 v -15.30664 h 1.7011 v -22.67578 h -1.7011 v -15.30664 z"
       inkscape:label="ML_SWITCH03" /><path
       id="rect1-0-9-3-9-2"
       style="fill:none;fill-opacity:0.3;stroke:#ff0000;stroke-width:0.00229382;stroke-dasharray:none;stroke-opacity:1"
       d="m 1402.0176,540.28499 v 15.30664 h -1.7011 v 22.67578 h 1.7011 v 15.30664 h 53.2883 v -15.30664 h 1.7012 v -22.67578 h -1.7012 v -15.30664 z"
       inkscape:label="ML_SWITCH13" /><path
       id="rect1-8-6-8-7-7"
       style="fill:none;fill-opacity:0.3;stroke:#ff0000;stroke-width:0.00229382;stroke-dasharray:none;stroke-opacity:1"
       d="m 1330.2066,540.28499 v 15.30664 h -1.7012 v 22.67578 h 1.7012 v 15.30664 h 53.2883 v -15.30664 h 1.7012 v -22.67578 h -1.7012 v -15.30664 z"
       inkscape:label="ML_SWITCH08" /><path
       id="rect1-0-9-4-92-9"
       style="fill:none;fill-opacity:0.3;stroke:#ff0000;stroke-width:0.00229382;stroke-dasharray:none;stroke-opacity:1"
       d="m 1402.0176,612.09601 v 15.30664 h -1.7011 v 22.67578 h 1.7011 v 15.30664 h 53.2883 v -15.30664 h 1.7012 v -22.67578 h -1.7012 v -15.30664 z"
       inkscape:label="ML_SWITCH12" /><path
       id="rect1-2-9-1"
       style="fill:none;fill-opacity:0.3;stroke:#0000ff;stroke-width:0.00377986;stroke-dasharray:none"
       d="m 1254.8006,385.51369 c -0.5211,0 -1.0286,0.0547 -1.5195,0.1543 -2.9606,0.60042 -5.2804,2.92021 -5.8809,5.88085 -0.1,0.49095 -0.1543,0.99836 -0.1543,1.51954 0,0.003 0,0.005 0,0.008 v 130.38477 217.33007 c 0,4.18532 3.3694,7.55469 7.5547,7.55469 h 122.8399 v -11.15059 h -47.4336 v -15.30664 h -1.7012 V 699.2129 h 1.7012 v -9.96094 l -6.4141,-6.41406 a 8.6922598,8.6922598 0 0 1 -2.8476,0.5 8.6922598,8.6922598 0 0 1 -2.8477,-0.5 l -6.4141,6.41406 v 9.96094 h 1.7012 v 22.67578 h -1.7012 v 15.30664 h -53.2871 v -15.30664 h -1.7011 V 699.2129 h 1.7011 v -15.30664 h 47.9434 l 6.4141,-6.41407 a 8.6922598,8.6922598 0 0 1 -0.5,-2.8457 8.6922598,8.6922598 0 0 1 0.5,-2.84766 l -6.4141,-6.41406 h -47.9434 v -15.30664 h -1.7011 v -22.67578 h 1.7011 v -15.30664 h 53.2871 v 15.30664 h 1.7012 v 22.67578 h -1.7012 v 9.96094 l 6.4161,6.41601 a 8.6922598,8.6922598 0 0 1 2.8457,-0.50195 8.6922598,8.6922598 0 0 1 2.8613,0.48633 l 6.4004,-6.40039 v -9.96094 h -1.7012 v -22.67578 h 1.7012 v -15.30664 h 53.2871 v 15.30664 h 1.7012 v 22.67578 h -1.7012 v 15.30664 h -47.9434 l -6.4004,6.40039 a 8.6922598,8.6922598 0 0 1 0.4864,2.86133 8.6922598,8.6922598 0 0 1 -0.5,2.8457 l 6.414,6.41407 h 47.9434 v 15.30664 h 1.7012 v 22.67578 h -1.7012 v 15.12109 h 18.5234 v -15.12109 h -1.7012 V 699.2129 h 1.7012 v -15.30664 h 53.2891 v 15.30664 h 1.7012 v 22.67578 h -1.7012 v 15.30664 h -47.4336 v 11.15039 h 49.1387 c 4.1853,0 7.5546,-3.36937 7.5546,-7.55469 V 531.02149 h 66.1387 c 4.1891,0 7.5606,-3.37144 7.5606,-7.56054 V 393.07619 c 0,-4.18911 -3.3715,-7.5625 -7.5606,-7.5625 h -73.6933 z"
       inkscape:label="ML_OUTLINE" /></g><g
     id="MR"
     inkscape:label="MR"><path
       id="MR_SWITCH14"
       style="fill:none;fill-opacity:0.3;stroke:#ff0000;stroke-width:0.00229382;stroke-dasharray:none;stroke-opacity:1"
       d="m 1711.9389,521.76303 v -15.30664 h -1.7012 v -22.67578 h 1.7012 v -15.30664 h 53.2883 v 15.30664 h 1.7011 v 22.67578 h -1.7011 v 15.30664 z"
       inkscape:label="MR_SWITCH14" /><path
       id="MR_SWITCH13"
       style="fill:none;fill-opacity:0.3;stroke:#ff0000;stroke-width:0.00229382;stroke-dasharray:none;stroke-opacity:1"
       d="m 1711.9389,593.57405 v -15.30664 h -1.7012 v -22.67578 h 1.7012 v -15.30664 h 53.2883 v 15.30664 h 1.7011 v 22.67578 h -1.7011 v 15.30664 z"
       inkscape:label="MR_SWITCH13" /><path
       id="MR_SWITCH10111617"
       style="fill:none;fill-opacity:0.3;stroke:#ff0000;stroke-width:0.00229382;stroke-dasharray:none;stroke-opacity:1"
       d="m 1711.9393,612.09571 v 15.30664 h -1.7012 v 22.67578 h 1.7012 v 15.30664 h 47.9433 l 6.4141,6.41406 a 8.6922598,8.6922598 0 0 0 -0.5,2.84766 8.6922598,8.6922598 0 0 0 0.5,2.84766 l -6.4121,6.41211 h -47.9453 v 15.30664 h -1.7012 v 22.67578 h 1.7012 v 15.30664 h 53.2871 v -15.30664 h 1.7012 V 699.2129 h -1.7012 v -9.95899 l 6.416,-6.41601 a 8.6922598,8.6922598 0 0 0 2.8457,0.5 8.6922598,8.6922598 0 0 0 2.8457,-0.5 l 6.416,6.41406 v 9.96094 h -1.7011 v 22.67578 h 1.7011 v 15.30664 h 53.2891 v -15.30664 h 1.7012 V 699.2129 h -1.7012 v -15.30664 h -47.9453 l -6.4141,-6.41407 a 8.6922598,8.6922598 0 0 0 0.502,-2.8457 8.6922598,8.6922598 0 0 0 -0.4864,-2.86133 l 6.4004,-6.40039 h 47.9434 v -15.30664 h 1.7012 v -22.67578 h -1.7012 v -15.30664 h -53.2891 v 15.30664 h -1.7011 v 22.67578 h 1.7011 v 9.96484 l -6.3965,6.39649 a 8.6922598,8.6922598 0 0 0 -2.8652,-0.48633 8.6922598,8.6922598 0 0 0 -2.8457,0.50195 l -6.416,-6.41406 v -9.96289 h 1.7012 v -22.67578 h -1.7012 v -15.30664 z"
       inkscape:label="MR_SWITCH10111617" /><path
       id="MR_SWITCH08"
       style="fill:none;fill-opacity:0.3;stroke:#ff0000;stroke-width:0.00229382;stroke-dasharray:none;stroke-opacity:1"
       d="m 1640.1278,593.57405 v -15.30664 h -1.7011 v -22.67578 h 1.7011 v -15.30664 h 53.2884 v 15.30664 h 1.7011 v 22.67578 h -1.7011 v 15.30664 z"
       inkscape:label="MR_SWITCH08" /><path
       id="MR_SWITCH03"
       style="fill:none;fill-opacity:0.3;stroke:#ff0000;stroke-width:0.00229382;stroke-dasharray:none;stroke-opacity:1"
       d="m 1568.3168,593.57405 v -15.30664 h -1.7011 v -22.67578 h 1.7011 v -15.30664 h 53.2883 v 15.30664 h 1.7012 v 22.67578 h -1.7012 v 15.30664 z"
       inkscape:label="MR_SWITCH03" /><path
       id="MR_SWITCH01020607"
       style="fill:none;fill-opacity:0.3;stroke:#ff0000;stroke-width:0.00229382;stroke-dasharray:none;stroke-opacity:1"
       d="m 1568.3162,612.09571 v 15.30664 h -1.7011 v 22.67578 h 1.7011 v 15.30664 h 47.9434 l 6.416,6.41602 a 8.6922598,8.6922598 0 0 0 -0.5019,2.8457 8.6922598,8.6922598 0 0 0 0.5019,2.8457 l -6.414,6.41407 h -47.9454 v 15.30664 h -1.7011 v 22.67578 h 1.7011 v 15.30664 h 53.2891 v -15.30664 h 1.7012 V 699.2129 h -1.7012 v -9.96094 l 6.4141,-6.41406 a 8.6922598,8.6922598 0 0 0 2.8476,0.5 8.6922598,8.6922598 0 0 0 2.8457,-0.5 l 6.416,6.41601 v 9.95899 h -1.7011 v 22.67578 h 1.7011 v 15.30664 h 53.2871 v -15.30664 h 1.7012 V 699.2129 h -1.7012 v -15.30664 h -47.9453 l -6.4121,-6.41211 a 8.6922598,8.6922598 0 0 0 0.5,-2.84766 8.6922598,8.6922598 0 0 0 -0.4863,-2.86133 l 6.4004,-6.40039 h 47.9433 v -15.30664 h 1.7012 v -22.67578 h -1.7012 v -15.30664 h -53.2871 v 15.30664 h -1.7011 v 22.67578 h 1.7011 v 9.96289 l -6.4003,6.39844 a 8.6922598,8.6922598 0 0 0 -2.8614,-0.48633 8.6922598,8.6922598 0 0 0 -2.8496,0.50195 l -6.4121,-6.41211 v -9.96484 h 1.7012 v -22.67578 h -1.7012 v -15.30664 z"
       inkscape:label="MR_SWITCH01020607" /><path
       id="MR_OUTLINE"
       style="fill:none;fill-opacity:0.3;stroke:#0000ff;stroke-width:0.00377986;stroke-dasharray:none"
       d="m 1564.7225,385.51369 c -4.1853,0 -7.5547,3.36936 -7.5547,7.55469 v 217.33007 130.38476 0.008 c 0,0.52118 0.055,1.02859 0.1543,1.51953 0.6004,2.96065 2.9202,5.28044 5.8809,5.88086 0.4909,0.0996 0.9983,0.1543 1.5195,0.1543 h 202.2109 73.6934 c 4.1891,0 7.5605,-3.3734 7.5605,-7.5625 V 610.39845 c 0,-4.18911 -3.3714,-7.56055 -7.5605,-7.56055 h -66.1387 V 393.06838 c 0,-4.18533 -3.3693,-7.55469 -7.5547,-7.55469 h -49.1386 v 11.14844 h 47.4316 v 15.30664 h 1.7012 v 22.67578 h -1.7012 v 15.30664 h -53.2871 v -15.30664 h -1.7012 v -22.67578 h 1.7012 v -15.11914 h -18.5235 v 15.11914 h 1.7012 v 22.67578 h -1.7012 v 15.30664 h -47.9433 l -6.4004,6.40039 a 8.6922598,8.6922598 0 0 1 0.4863,2.86132 8.6922598,8.6922598 0 0 1 -0.5,2.84766 l 6.4141,6.41406 h 47.9433 v 15.30664 h 1.7012 v 22.67578 h -1.7012 v 15.30664 h -53.2871 v -15.30664 h -1.7011 v -22.67578 h 1.7011 v -9.96093 l -6.416,-6.41602 a 8.6922598,8.6922598 0 0 1 -2.8457,0.5 8.6922598,8.6922598 0 0 1 -2.8476,-0.5 l -6.4141,6.41406 v 9.96289 h 1.7012 v 22.67578 h -1.7012 v 15.30664 h -53.2891 v -15.30664 h -1.7011 v -22.67578 h 1.7011 v -15.30664 h 47.9434 l 6.416,-6.41601 a 8.6922598,8.6922598 0 0 1 -0.5019,-2.84571 8.6922598,8.6922598 0 0 1 0.5019,-2.8457 l -6.416,-6.41601 h -47.9434 v -15.30664 h -1.7011 v -22.67578 h 1.7011 v -15.30664 h 53.2891 v 15.30664 h 1.7012 v 22.67578 h -1.7012 v 9.96484 l 6.4121,6.41211 a 8.6922598,8.6922598 0 0 1 2.8496,-0.5 8.6922598,8.6922598 0 0 1 2.8614,0.48633 l 6.4003,-6.40039 v -9.96289 h -1.7011 v -22.67578 h 1.7011 v -15.30664 h 47.4317 v -11.14844 z"
       inkscape:label="MR_OUTLINE" /></g><g
     id="BL"
     inkscape:label="BL"><path
       id="BL_STANDOFF"
       style="fill:none;fill-opacity:0.3;stroke:#ff0000;stroke-width:0.00153428"
       d="m 1474.77,837.1657 a 10.203957,10.203957 0 0 1 -10.2039,10.20395 10.203957,10.203957 0 0 1 -10.204,-10.20395 10.203957,10.203957 0 0 1 10.204,-10.20396 10.203957,10.203957 0 0 1 10.2039,10.20396 z"
       inkscape:label="BL_STANDOFF" /><path
       id="BL_SOCKET16"
       style="fill:none;fill-opacity:0.3;stroke:#ff0000;stroke-width:0.000452892;stroke-dasharray:none;stroke-opacity:1"
       d="m 1527.8924,893.15993 h -1.2676 v 8.25781 h -14.3613 v -8.25781 h -3.2696 v -20.59961 h -7.1425 v -24.37696 h 0.8125 v -7.99414 h 15.1171 v 7.99414 h 10.1114 v 20.59767 z"
       inkscape:label="BL_SOCKET16" /><path
       id="BL_SOCKET15"
       style="fill:none;fill-opacity:0.3;stroke:#ff0000;stroke-width:0.000452892;stroke-dasharray:none;stroke-opacity:1"
       d="m 1401.2398,781.17146 h 1.2676 v -8.25781 h 14.3613 v 8.25781 h 3.2695 v 20.59961 h 7.1426 v 24.37695 h -0.8125 v 7.99414 h -15.1172 v -7.99414 h -10.1113 v -20.59766 z"
       inkscape:label="BL_SOCKET15" /><path
       id="BL_SOCKET14"
       style="fill:none;fill-opacity:0.3;stroke:#ff0000;stroke-width:0.000452892;stroke-dasharray:none;stroke-opacity:1"
       d="m 1401.2398,852.98248 h 1.2676 v -8.25781 h 14.3613 v 8.25781 h 3.2695 v 20.59962 h 7.1426 v 24.37695 h -0.8125 v 7.99414 h -15.1172 v -7.99414 h -10.1113 v -20.59766 z"
       inkscape:label="BL_SOCKET14" /><path
       id="BL_SOCKET13"
       style="fill:none;fill-opacity:0.3;stroke:#ff0000;stroke-width:0.000452892;stroke-dasharray:none;stroke-opacity:1"
       d="m 1401.2398,924.79351 h 1.2676 v -8.25781 h 14.3613 v 8.25781 h 3.2695 v 20.59961 h 7.1426 v 24.37695 h -0.8125 v 7.99414 h -15.1172 v -7.99414 h -10.1113 v -20.59766 z"
       inkscape:label="BL_SOCKET13" /><path
       id="BL_SOCKET12"
       style="fill:none;fill-opacity:0.3;stroke:#ff0000;stroke-width:0.000452892;stroke-dasharray:none;stroke-opacity:1"
       d="m 1401.2398,996.60453 h 1.2676 v -8.25781 h 14.3613 v 8.25781 h 3.2695 v 20.59967 h 7.1426 v 24.3769 h -0.8125 v 7.9942 h -15.1172 v -7.9942 h -10.1113 v -20.5976 z"
       inkscape:label="BL_SOCKET12" /><path
       id="BL_SOCKET0910"
       style="fill:none;fill-opacity:0.3;stroke:#ff0000;stroke-width:0.00173725;stroke-opacity:1"
       d="m 1330.6971,772.91367 0,8.25781 h -1.2676 v 24.37891 l 0,17.78711 -4.5215,4.52148 a 10.203957,10.203957 0 0 0 -3.9648,-0.89649 10.203957,10.203957 0 0 0 -10.2031,10.20312 10.203957,10.203957 0 0 0 10.2031,10.20313 10.203957,10.203957 0 0 0 3.9785,-0.82421 l 4.5078,4.43554 v 2.00195 2.13672 22.24219 l 0,20.59766 h 10.1114 v 7.99414 h 15.1172 v -7.99414 h 0.8124 v -24.37695 h -7.1425 l 0,-20.59962 -3.2696,10e-6 v -8.25782 h -11.2109 l -3.5547,-3.49802 a 10.203957,10.203957 0 0 0 0.8554,-4.06054 10.203957,10.203957 0 0 0 -0.8964,-3.96288 l 7.0547,-7.05469 h 2.2343 v 7.99413 h 15.1172 v -7.99413 h 0.8125 v -24.37695 l -7.1426,-10e-6 v -20.5996 h -3.2695 l 0,-8.25782 z"
       inkscape:label="BL_SOCKET0910" /><path
       id="BL_SOCKET08"
       style="fill:none;fill-opacity:0.3;stroke:#ff0000;stroke-width:0.000452892;stroke-dasharray:none;stroke-opacity:1"
       d="m 1329.4288,924.79351 h 1.2675 v -8.25781 h 14.3614 v 8.25781 h 3.2695 v 20.59961 h 7.1426 v 24.37695 h -0.8125 v 7.99414 h -15.1172 v -7.99414 h -10.1113 v -20.59766 z"
       inkscape:label="BL_SOCKET08" /><path
       id="BL_SOCKET05"
       style="fill:none;fill-opacity:0.3;stroke:#ff0000;stroke-width:0.000452892;stroke-dasharray:none;stroke-opacity:1"
       d="m 1257.6177,781.17146 h 1.2676 v -8.25781 h 14.3613 v 8.25781 h 3.2696 v 20.59961 h 7.1425 v 24.37695 h -0.8125 v 7.99414 h -15.1171 v -7.99414 h -10.1114 v -20.59766 z"
       inkscape:label="BL_SOCKET05" /><path
       id="BL_SOCKET04"
       style="fill:none;fill-opacity:0.3;stroke:#ff0000;stroke-width:0.000452892;stroke-dasharray:none;stroke-opacity:1"
       d="m 1257.6177,852.98248 h 1.2676 v -8.25781 h 14.3613 v 8.25781 h 3.2696 v 20.59962 h 7.1425 v 24.37695 h -0.8125 v 7.99414 h -15.1171 v -7.99414 h -10.1114 v -20.59766 z"
       inkscape:label="BL_SOCKET04" /><path
       id="BL_SOCKET03"
       style="fill:none;fill-opacity:0.3;stroke:#ff0000;stroke-width:0.000452892;stroke-dasharray:none;stroke-opacity:1"
       d="m 1257.6177,924.79351 h 1.2676 v -8.25781 h 14.3613 v 8.25781 h 3.2696 v 20.59961 h 7.1425 v 24.37695 h -0.8125 v 7.99414 h -15.1171 v -7.99414 h -10.1114 v -20.59766 z"
       inkscape:label="BL_SOCKET03" /><path
       id="BL_SOCKET02"
       style="fill:none;fill-opacity:0.3;stroke:#ff0000;stroke-width:0.000452892;stroke-dasharray:none;stroke-opacity:1"
       d="m 1257.6177,996.60453 h 1.2676 v -8.25781 h 14.3613 v 8.25781 h 3.2696 v 20.59967 h 7.1425 v 24.3769 h -0.8125 v 7.9942 h -15.1171 v -7.9942 h -10.1114 v -20.5976 z"
       inkscape:label="BL_SOCKET02" /><path
       id="BL_OUTLOINE"
       style="fill:none;fill-opacity:0.3;stroke:#0000ff;stroke-width:0.00377986;stroke-dasharray:none"
       d="m 1254.8006,763.4664 c -0.5212,0 -1.0286,0.0547 -1.5195,0.1543 -2.9606,0.60042 -5.2804,2.92024 -5.8809,5.88086 -0.1,0.49093 -0.1543,0.99835 -0.1543,1.51953 v 0.008 130.38477 217.33014 c 0,4.1852 3.3695,7.5546 7.5547,7.5546 h 12.9278 v -4.9121 -2.9746 -5.0195 h -10.1114 v -20.5977 -24.3789 h 1.2676 v -8.2578 h 14.3613 v 8.2578 h 3.2696 v 20.5996 h 7.1425 v 24.377 h -0.8125 v 5.0195 2.9746 4.9121 h 56.6954 v -4.9121 -2.9746 -5.0195 h -10.1114 v -20.5977 -22.7597 -1.6192 -2.0039 l -4.5058,-4.4336 a 10.203957,10.203957 0 0 1 -3.9805,0.8242 10.203957,10.203957 0 0 1 -10.2031,-10.2031 10.203957,10.203957 0 0 1 10.2031,-10.2051 10.203957,10.203957 0 0 1 4.0215,0.8399 l 4.4648,-4.4649 v -17.7851 -24.37894 h 1.2676 v -8.25781 h 14.3613 v 8.25781 h 3.2696 v 20.59964 h 7.1425 v 24.3769 h -0.8125 v 7.9942 h -15.1171 v -7.9942 h -2.2364 l -6.9961,6.9961 a 10.203957,10.203957 0 0 1 0.8399,4.0215 10.203957,10.203957 0 0 1 -0.8555,4.0606 l 3.5547,3.498 h 11.2109 v 8.2578 h 3.2696 v 20.5996 h 7.1425 v 24.377 h -0.8125 v 7.9941 h -0 v 4.9121 h 13.5332 v -1.8886 c 0,-5.2342 4.2131,-9.4473 9.4473,-9.4473 h 23.6035 v -1.5703 -3.5 -17.0977 -24.3789 h 1.2676 v -8.2578 h 14.3613 v 8.2578 h 3.2696 v 20.5996 h 7.1425 v 24.377 h -0.8125 v 5.0195 2.9746 4.9121 h 30.543 c 4.1853,0 7.5547,-3.3694 7.5547,-7.5546 v -55.9414 a 10.203957,10.203957 0 0 1 -10.205,-10.2032 10.203957,10.203957 0 0 1 10.205,-10.205 V 908.97421 h 66.1387 c 4.1891,0 7.5606,-3.37153 7.5606,-7.56054 V 771.0289 c 0,-4.18906 -3.3715,-7.5625 -7.5606,-7.5625 h -12.9238 v 4.91211 7.99414 h 10.1113 v 20.59766 24.3789 h -1.2676 v 8.25782 h -14.3613 v -8.25782 h -3.2695 V 800.7496 h -7.1426 v -24.37695 h 0.8125 v -7.99414 -4.91211 h -45.6523 z"
       inkscape:label="BL_OUTLOINE" /><path
       id="BL_DIODE17"
       style="fill:none;fill-opacity:0.3;stroke:#ff0000;stroke-width:0.0004509"
       d="m 1497.0811,816.56704 v -7.55861 h -21.3539 v 7.55861 z"
       inkscape:label="BL_DIODE17" /><path
       id="BL_DIODE16"
       style="fill:none;fill-opacity:0.3;stroke:#ff0000;stroke-width:0.0004509"
       d="m 1497.0811,888.37806 v -7.55861 h -21.3538 v 7.55861 z"
       inkscape:label="BL_DIODE16" /><path
       id="BL_DIODE15"
       style="fill:none;fill-opacity:0.3;stroke:#ff0000;stroke-width:0.0004509"
       d="m 1432.051,785.95333 v 7.55861 h 21.3539 v -7.55861 z"
       inkscape:label="BL_DIODE15" /><path
       id="BL_DIODE14"
       style="fill:none;fill-opacity:0.3;stroke:#ff0000;stroke-width:0.0004509"
       d="m 1432.051,857.76436 v 7.55861 h 21.3539 v -7.55861 z"
       inkscape:label="BL_DIODE14" /><path
       id="BL_DIODE13"
       style="fill:none;fill-opacity:0.3;stroke:#ff0000;stroke-width:0.0004509"
       d="m 1432.051,929.57538 v 7.55861 h 21.3539 v -7.55861 z"
       inkscape:label="BL_DIODE13" /><path
       id="BL_DIODE12"
       style="fill:none;fill-opacity:0.3;stroke:#ff0000;stroke-width:0.0004509"
       d="m 1432.051,1001.3864 v 7.5586 h 21.3539 v -7.5586 z"
       inkscape:label="BL_DIODE12" /><path
       id="BL_DIODE11"
       style="fill:none;fill-opacity:0.3;stroke:#ff0000;stroke-width:0.0004509"
       d="m 1432.051,1073.1974 v 7.5587 h 21.3539 v -7.5587 z"
       inkscape:label="BL_DIODE11" /><path
       id="BL_DIODE10"
       style="fill:none;fill-opacity:0.3;stroke:#ff0000;stroke-width:0.0004509"
       d="m 1360.24,785.95333 v 7.55861 h 21.3539 v -7.55861 z"
       inkscape:label="BL_DIODE10" /><path
       id="BL_DIODE09"
       style="fill:none;fill-opacity:0.3;stroke:#ff0000;stroke-width:0.0004509"
       d="m 1360.24,857.76436 v 7.55861 h 21.3539 v -7.55861 z"
       inkscape:label="BL_DIODE09" /><path
       id="BL_DIODE08"
       style="fill:none;fill-opacity:0.3;stroke:#ff0000;stroke-width:0.0004509"
       d="m 1360.24,929.57538 v 7.55861 h 21.3539 v -7.55861 z"
       inkscape:label="BL_DIODE08" /><path
       id="BL_DIODE07"
       style="fill:none;fill-opacity:0.3;stroke:#ff0000;stroke-width:0.0004509"
       d="m 1360.24,1001.3864 v 7.5586 h 21.3539 v -7.5586 z"
       inkscape:label="BL_DIODE07" /><path
       id="BL_DIODE06"
       style="fill:none;fill-opacity:0.3;stroke:#ff0000;stroke-width:0.0004509"
       d="m 1360.24,1073.1974 v 7.5587 h 21.3539 v -7.5587 z"
       inkscape:label="BL_DIODE06" /><path
       id="BL_DIODE05"
       style="fill:none;fill-opacity:0.3;stroke:#ff0000;stroke-width:0.0004509"
       d="m 1288.429,785.95333 v 7.55861 h 21.3538 v -7.55861 z"
       inkscape:label="BL_DIODE05" /><path
       id="BL_DIODE04"
       style="fill:none;fill-opacity:0.3;stroke:#ff0000;stroke-width:0.0004509"
       d="m 1288.429,857.76436 v 7.55861 h 21.3538 v -7.55861 z"
       inkscape:label="BL_DIODE04" /><path
       id="BL_DIODE03"
       style="fill:none;fill-opacity:0.3;stroke:#ff0000;stroke-width:0.0004509"
       d="m 1288.429,929.57538 v 7.55861 h 21.3538 v -7.55861 z"
       inkscape:label="BL_DIODE03" /><path
       id="BL_DIODE02"
       style="fill:none;fill-opacity:0.3;stroke:#ff0000;stroke-width:0.0004509"
       d="m 1288.429,1001.3864 v 7.5586 h 21.3538 v -7.5586 z"
       inkscape:label="BL_DIODE02" /><path
       id="BL_DIODE01"
       style="fill:none;fill-opacity:0.3;stroke:#ff0000;stroke-width:0.0004509"
       d="m 1288.429,1073.1974 v 7.5587 h 21.3538 v -7.5587 z"
       inkscape:label="BL_DIODE01" /></g><g
     id="BR"><path
       id="BR_STANDOFF"
       style="fill:none;fill-opacity:0.3;stroke:#ff0000;stroke-width:0.00153428"
       d="m 1784.6913,1052.5988 a 10.203957,10.203957 0 0 1 -10.204,10.2039 10.203957,10.203957 0 0 1 -10.2039,-10.2039 10.203957,10.203957 0 0 1 10.2039,-10.204 10.203957,10.203957 0 0 1 10.204,10.204 z"
       inkscape:label="" /><path
       id="BR_SOCKET16"
       style="fill:none;fill-opacity:0.3;stroke:#ff0000;stroke-width:0.000452892;stroke-dasharray:none;stroke-opacity:1"
       d="m 1837.8137,1108.5931 h -1.2676 v 8.2578 h -14.3613 v -8.2578 h -3.2695 v -20.5997 h -7.1426 v -24.3769 h 0.8125 v -7.9941 h 15.1172 v 7.9941 h 10.1113 v 20.5977 z"
       inkscape:label="BR_SOCKET16" /><path
       id="BR_SOCKET14"
       style="fill:none;fill-opacity:0.3;stroke:#ff0000;stroke-width:0.000452892;stroke-dasharray:none;stroke-opacity:1"
       d="m 1711.1611,852.98248 h 1.2675 v -8.25781 h 14.3614 v 8.25781 h 3.2695 v 20.59962 h 7.1426 v 24.37695 h -0.8125 v 7.99414 h -15.1172 v -7.99414 h -10.1113 v -20.59766 z"
       inkscape:label="BR_SOCKET14" /><path
       id="BR_SOCKET13"
       style="fill:none;fill-opacity:0.3;stroke:#ff0000;stroke-width:0.000452892;stroke-dasharray:none;stroke-opacity:1"
       d="m 1711.1611,924.79351 h 1.2675 v -8.25781 h 14.3614 v 8.25781 h 3.2695 v 20.59961 h 7.1426 v 24.37695 h -0.8125 v 7.99414 h -15.1172 v -7.99414 h -10.1113 v -20.59766 z"
       inkscape:label="BR_SOCKET13" /><path
       id="BR_SOCKET12"
       style="fill:none;fill-opacity:0.3;stroke:#ff0000;stroke-width:0.000452892;stroke-dasharray:none;stroke-opacity:1"
       d="m 1711.1611,996.60453 h 1.2675 v -8.25781 h 14.3614 v 8.25781 h 3.2695 v 20.59967 h 7.1426 v 24.3769 h -0.8125 v 7.9942 h -15.1172 v -7.9942 h -10.1113 v -20.5976 z"
       inkscape:label="BR_SOCKET12" /><path
       id="BR_SOCKET0910"
       style="fill:none;fill-opacity:0.3;stroke:#ff0000;stroke-width:0.00173725;stroke-opacity:1"
       d="m 1640.6171,772.91367 v 8.25781 h -1.2676 v 24.37891 17.78906 l -4.5196,4.51953 a 10.203957,10.203957 0 0 0 -3.9648,-0.89648 10.203957,10.203957 0 0 0 -10.2031,10.20312 10.203957,10.203957 0 0 0 10.2031,10.20312 10.203957,10.203957 0 0 0 3.9766,-0.82421 l 4.5097,4.4375 v 1.99999 0 24.37891 20.59765 l 10.1113,10e-6 v 7.99414 h 15.1172 v -7.99414 h 0.8125 v -24.37695 h -7.1425 v -20.59962 l -3.2696,10e-6 v -8.25782 h -11.2109 l -3.5547,-3.49808 a 10.203957,10.203957 0 0 0 0.8575,-4.06055 10.203957,10.203957 0 0 0 -0.8965,-3.96288 l 7.0547,-7.0547 h 2.2324 v 7.99414 H 1664.58 V 826.148 h 0.8125 v -24.37695 h -7.1426 v -20.5996 l -3.2695,-1e-5 v -8.25781 z"
       inkscape:label="BR_SOCKET0910" /><path
       id="BR_SOCKET08"
       style="fill:none;fill-opacity:0.3;stroke:#ff0000;stroke-width:0.000452892;stroke-dasharray:none;stroke-opacity:1"
       d="m 1639.35,924.79351 h 1.2676 v -8.25781 h 14.3613 v 8.25781 h 3.2696 v 20.59961 h 7.1425 v 24.37695 h -0.8125 v 7.99414 h -15.1171 v -7.99414 H 1639.35 v -20.59766 z"
       inkscape:label="BR_SOCKET08" /><path
       id="BR_SOCKET05"
       style="fill:none;fill-opacity:0.3;stroke:#ff0000;stroke-width:0.000452892;stroke-dasharray:none;stroke-opacity:1"
       d="m 1567.539,781.17146 h 1.2676 v -8.25781 h 14.3613 v 8.25781 h 3.2695 v 20.59961 h 7.1426 v 24.37695 h -0.8125 v 7.99414 h -15.1172 v -7.99414 h -10.1113 v -20.59766 z"
       inkscape:label="BR_SOCKET05" /><path
       id="BR_SOCKET04"
       style="fill:none;fill-opacity:0.3;stroke:#ff0000;stroke-width:0.000452892;stroke-dasharray:none;stroke-opacity:1"
       d="m 1567.539,852.98248 h 1.2676 v -8.25781 h 14.3613 v 8.25781 h 3.2695 v 20.59962 h 7.1426 v 24.37695 h -0.8125 v 7.99414 h -15.1172 v -7.99414 h -10.1113 v -20.59766 z"
       inkscape:label="BR_SOCKET04" /><path
       id="BR_SOCKET03"
       style="fill:none;fill-opacity:0.3;stroke:#ff0000;stroke-width:0.000452892;stroke-dasharray:none;stroke-opacity:1"
       d="m 1567.539,924.79351 h 1.2676 v -8.25781 h 14.3613 v 8.25781 h 3.2695 v 20.59961 h 7.1426 v 24.37695 h -0.8125 v 7.99414 h -15.1172 v -7.99414 h -10.1113 v -20.59766 z"
       inkscape:label="BR_SOCKET03" /><path
       id="BR_SOCKET02"
       style="fill:none;fill-opacity:0.3;stroke:#ff0000;stroke-width:0.000452892;stroke-dasharray:none;stroke-opacity:1"
       d="m 1567.539,996.60453 h 1.2676 v -8.25781 h 14.3613 v 8.25781 h 3.2695 v 20.59967 h 7.1426 v 24.3769 h -0.8125 v 7.9942 h -15.1172 v -7.9942 h -10.1113 v -20.5976 z"
       inkscape:label="BR_SOCKET02" /><path
       id="BR_OUTLINE"
       style="fill:none;fill-opacity:0.3;stroke:#0000ff;stroke-width:0.00377986;stroke-dasharray:none"
       d="m 1564.7205,763.4664 c -4.1853,0 -7.5546,3.3694 -7.5546,7.55469 v 217.33008 130.38483 0.01 c 0,0.5211 0.055,1.0285 0.1543,1.5195 0.6003,2.9606 2.9203,5.2804 5.8808,5.8808 0.4909,0.1 0.9984,0.1543 1.5195,0.1543 h 12.9297 v -4.9121 -2.9746 -5.0195 h -10.1113 v -20.5977 -24.3789 h 1.2676 v -8.2578 h 14.3613 v 8.2578 h 3.2695 v 20.5996 h 7.1426 v 24.377 h -0.8125 v 5.0195 2.9746 4.9121 h 56.6934 v -4.9121 -2.9746 -5.0195 h -10.1113 v -20.5977 -21.2148 -3.1641 -2.0039 l -4.5059,-4.4336 a 10.203957,10.203957 0 0 1 -3.9785,0.8242 10.203957,10.203957 0 0 1 -10.2031,-10.2031 10.203957,10.203957 0 0 1 10.2031,-10.2051 10.203957,10.203957 0 0 1 4.0215,0.8399 l 4.4629,-4.4629 v -17.7871 -24.37894 h 1.2676 v -8.25781 h 14.3613 v 8.25781 h 3.2695 v 20.59964 h 7.1426 v 24.3769 h -0.8125 v 7.9942 h -15.1172 v -7.9942 h -2.2344 l -6.9961,6.9961 a 10.203957,10.203957 0 0 1 0.8399,4.0215 10.203957,10.203957 0 0 1 -0.8574,4.0606 l 3.5546,3.498 h 1.254 9.957 v 8.2578 h 3.2695 v 20.5996 h 7.1426 v 24.377 h -0.8125 v 5.0195 2.9746 4.9121 h 56.6934 v -7.8867 0 -5.0195 h -10.1113 v -20.5977 -24.3789 h 1.2676 v -8.2578 h 14.3613 v 8.2578 h 3.2695 v 20.5996 h 7.1426 v 24.377 h -0.8125 v 7.9941 0 4.9121 h 30.543 73.6934 c 4.1891,0 7.5605,-3.3734 7.5605,-7.5625 V 988.35117 c 0,-4.18911 -3.3714,-7.56055 -7.5605,-7.56055 h -12.9219 v 3.02148 3.9961 3.99804 h 10.1113 v 20.59766 24.3789 h -1.2676 v 8.2578 h -14.3613 v -8.2578 h -3.2695 v -20.5996 h -7.1426 v -24.37696 h 0.8125 v -3.99804 0 -7.01758 h -38.0976 V 847.36874 a 10.203957,10.203957 0 0 1 -10.2031,-10.20312 10.203957,10.203957 0 0 1 10.2031,-10.20313 v -55.9414 c 0,-4.18529 -3.3694,-7.55469 -7.5547,-7.55469 h -39.6894 v 1.88672 c 0,3.11253 -1.5114,5.84081 -3.8204,7.56055 h 3.3692 v 8.25781 h 3.2695 v 20.59961 h 7.1426 v 24.37695 h -0.8125 v 7.99414 h -15.1172 v -7.99414 h -10.1113 v -20.59765 -24.37891 h 1.2676 v -6.36914 h -24.8711 c -5.2342,0 -9.4473,-4.21505 -9.4473,-9.44922 v -1.88672 z"
       inkscape:label="BR_OUTLINE" /><path
       id="BR_DIODE17"
       style="fill:none;fill-opacity:0.3;stroke:#ff0000;stroke-width:0.0004509"
       d="m 1807.0025,1032.0001 v -7.5586 h -21.3539 v 7.5586 z" /><path
       id="BR_DIODE16"
       style="fill:none;fill-opacity:0.3;stroke:#ff0000;stroke-width:0.0004509"
       d="m 1807.0025,1103.8112 v -7.5586 h -21.3539 v 7.5586 z"
       inkscape:label="BR_DIODE16" /><path
       id="BR_DIODE15"
       style="fill:none;fill-opacity:0.3;stroke:#ff0000;stroke-width:0.0004509"
       d="m 1741.9723,785.95333 v 7.55861 h 21.3539 v -7.55861 z" /><path
       id="BR_DIODE14"
       style="fill:none;fill-opacity:0.3;stroke:#ff0000;stroke-width:0.0004509"
       d="m 1741.9723,857.76436 v 7.55861 h 21.3539 v -7.55861 z" /><path
       id="BR_DIODE13"
       style="fill:none;fill-opacity:0.3;stroke:#ff0000;stroke-width:0.0004509"
       d="m 1741.9723,929.57538 v 7.55861 h 21.3539 v -7.55861 z" /><path
       id="BR_DIODE12"
       style="fill:none;fill-opacity:0.3;stroke:#ff0000;stroke-width:0.0004509"
       d="m 1741.9723,1001.3864 v 7.5586 h 21.3539 v -7.5586 z" /><path
       id="BR_DIODE11"
       style="fill:none;fill-opacity:0.3;stroke:#ff0000;stroke-width:0.0004509"
       d="m 1741.9723,1073.1974 v 7.5587 h 21.3539 v -7.5587 z" /><path
       id="BR_DIODE10"
       style="fill:none;fill-opacity:0.3;stroke:#ff0000;stroke-width:0.0004509"
       d="m 1670.1613,785.95333 v 7.55861 h 21.3538 v -7.55861 z" /><path
       id="BR_DIODE09"
       style="fill:none;fill-opacity:0.3;stroke:#ff0000;stroke-width:0.0004509"
       d="m 1670.1613,857.76436 v 7.55861 h 21.3538 v -7.55861 z" /><path
       id="BR_DIODE08"
       style="fill:none;fill-opacity:0.3;stroke:#ff0000;stroke-width:0.0004509"
       d="m 1670.1613,929.57538 v 7.55861 h 21.3538 v -7.55861 z" /><path
       id="BR_DIODE07"
       style="fill:none;fill-opacity:0.3;stroke:#ff0000;stroke-width:0.0004509"
       d="m 1670.1613,1001.3864 v 7.5586 h 21.3538 v -7.5586 z" /><path
       id="BR_DIODE06"
       style="fill:none;fill-opacity:0.3;stroke:#ff0000;stroke-width:0.0004509"
       d="m 1670.1613,1073.1974 v 7.5587 h 21.3538 v -7.5587 z" /><path
       id="BR_DIODE05"
       style="fill:none;fill-opacity:0.3;stroke:#ff0000;stroke-width:0.0004509"
       d="m 1598.3502,785.95333 v 7.55861 h 21.3539 v -7.55861 z" /><path
       id="BR_DIODE04"
       style="fill:none;fill-opacity:0.3;stroke:#ff0000;stroke-width:0.0004509"
       d="m 1598.3502,857.76436 v 7.55861 h 21.3539 v -7.55861 z" /><path
       id="BR_DIODE03"
       style="fill:none;fill-opacity:0.3;stroke:#ff0000;stroke-width:0.0004509"
       d="m 1598.3502,929.57538 v 7.55861 h 21.3539 v -7.55861 z" /><path
       id="BR_DIODE02"
       style="fill:none;fill-opacity:0.3;stroke:#ff0000;stroke-width:0.0004509"
       d="m 1598.3502,1001.3864 v 7.5586 h 21.3539 v -7.5586 z" /><path
       id="BR_DIODE01"
       style="fill:none;fill-opacity:0.3;stroke:#ff0000;stroke-width:0.0004509"
       d="m 1598.3502,1073.1974 v 7.5587 h 21.3539 v -7.5587 z" /></g></g>







</svg>
