M48
; DRILL file {KiCad 7.0.5} date Sat Sep 30 13:54:33 2023
; FORMAT={-:-/ absolute / metric / decimal}
; #@! TF.CreationDate,2023-09-30T13:54:33+09:00
; #@! TF.GenerationSoftware,Kicad,Pcbnew,7.0.5
; #@! TF.FileFunction,Plated,1,2,PTH
FMAT,2
METRIC
; #@! TA.AperFunction,Plated,PTH,ViaDrill
T1C0.400
; #@! TA.AperFunction,Plated,PTH,ComponentDrill
T2C0.500
; #@! TA.AperFunction,Plated,PTH,ComponentDrill
T3C0.700
; #@! TA.AperFunction,Plated,PTH,ComponentDrill
T4C0.750
; #@! TA.AperFunction,Plated,PTH,ComponentDrill
T5C0.813
%
G90
G05
T1
X31.3Y-92.82
X31.77Y-63.77
X32.53Y-78.32
X33.68Y-106.68
X34.79Y-86.85
X35.86Y-89.26
X42.01Y-42.86
X42.12Y-61.69
X42.12Y-80.68
X43.52Y-59.69
X43.53Y-40.49
X43.54Y-78.71
X43.55Y-47.04
X43.55Y-66.15
X43.61Y-85.21
X45.55Y-38.38
X45.59Y-57.36
X45.66Y-76.34
X48.0Y-104.48
X48.05Y-92.76
X48.2Y-88.54
X49.36Y-85.14
X52.5Y-40.03
X52.5Y-54.76
X52.5Y-59.03
X52.5Y-73.72
X52.5Y-78.03
X52.5Y-85.42
X53.62Y-82.8
X61.05Y-42.82
X61.11Y-80.67
X61.13Y-61.66
X62.44Y-40.52
X62.51Y-59.6
X62.54Y-78.69
X64.47Y-38.36
X64.63Y-57.36
X64.65Y-76.35
X70.25Y-82.65
X71.49Y-78.03
X71.49Y-84.671
X71.5Y-40.03
X71.5Y-54.81
X71.5Y-59.03
X71.5Y-73.81
X72.8Y-82.65
X80.04Y-42.75
X80.12Y-80.7
X80.14Y-61.64
X81.48Y-40.51
X81.51Y-78.73
X81.55Y-59.55
X83.43Y-38.37
X83.52Y-76.34
X83.56Y-57.41
X88.79Y-87.22
X90.5Y-40.03
X90.5Y-54.81
X90.5Y-59.03
X90.5Y-73.81
X90.5Y-78.03
X91.74Y-84.671
X92.4Y-99.6
X94.44Y-97.32
X94.46Y-90.89
X95.93Y-95.22
X99.09Y-80.72
X99.1Y-42.76
X99.14Y-61.65
X100.47Y-40.54
X100.51Y-78.66
X100.53Y-59.59
X102.4Y-38.36
X102.54Y-57.35
X102.62Y-76.35
X104.5Y-97.94
X109.5Y-40.02
X109.5Y-54.81
X109.5Y-59.03
X109.5Y-73.81
X109.5Y-78.03
X110.72Y-84.671
X111.29Y-99.62
X113.48Y-97.23
X114.91Y-95.27
X117.99Y-61.88
X118.08Y-80.8
X118.09Y-42.74
X119.5Y-78.58
X119.56Y-40.57
X119.59Y-59.56
X121.44Y-57.43
X121.65Y-38.31
X121.7Y-76.37
X123.5Y-97.97
T3
X40.778Y-103.065
X42.683Y-103.065
T4
X44.25Y-96.0
X44.25Y-98.0
T5
X35.38Y-91.0
X35.38Y-106.24
X37.92Y-91.0
X37.92Y-106.24
X40.46Y-91.0
X40.46Y-106.24
X43.0Y-91.0
X43.0Y-106.24
X45.54Y-91.0
X45.54Y-106.24
X48.08Y-91.0
X48.08Y-106.24
X50.62Y-91.0
X50.62Y-106.24
T2
X32.35Y-66.65G85X32.35Y-66.35
G05
X32.35Y-69.15G85X32.35Y-68.85
G05
X32.35Y-71.65G85X32.35Y-71.35
G05
T0
M30
