G04 #@! TF.GenerationSoftware,KiCad,Pcbnew,7.0.5*
G04 #@! TF.CreationDate,2023-09-30T13:53:55+09:00*
G04 #@! TF.ProjectId,thorium_pcbl,74686f72-6975-46d5-9f70-63626c2e6b69,rev?*
G04 #@! TF.SameCoordinates,Original*
G04 #@! TF.FileFunction,Legend,Top*
G04 #@! TF.FilePolarity,Positive*
%FSLAX46Y46*%
G04 Gerber Fmt 4.6, Leading zero omitted, Abs format (unit mm)*
G04 Created by KiCad (PCBNEW 7.0.5) date 2023-09-30 13:53:55*
%MOMM*%
%LPD*%
G01*
G04 APERTURE LIST*
G04 Aperture macros list*
%AMRoundRect*
0 Rectangle with rounded corners*
0 $1 Rounding radius*
0 $2 $3 $4 $5 $6 $7 $8 $9 X,Y pos of 4 corners*
0 Add a 4 corners polygon primitive as box body*
4,1,4,$2,$3,$4,$5,$6,$7,$8,$9,$2,$3,0*
0 Add four circle primitives for the rounded corners*
1,1,$1+$1,$2,$3*
1,1,$1+$1,$4,$5*
1,1,$1+$1,$6,$7*
1,1,$1+$1,$8,$9*
0 Add four rect primitives between the rounded corners*
20,1,$1+$1,$2,$3,$4,$5,0*
20,1,$1+$1,$4,$5,$6,$7,0*
20,1,$1+$1,$6,$7,$8,$9,0*
20,1,$1+$1,$8,$9,$2,$3,0*%
G04 Aperture macros list end*
%ADD10C,0.150000*%
%ADD11C,0.120000*%
%ADD12C,1.524000*%
%ADD13O,1.500000X2.500000*%
%ADD14O,1.750000X1.200000*%
%ADD15RoundRect,0.250000X0.625000X-0.350000X0.625000X0.350000X-0.625000X0.350000X-0.625000X-0.350000X0*%
%ADD16C,2.000000*%
%ADD17C,3.000000*%
%ADD18C,4.000000*%
%ADD19O,1.000000X1.300000*%
G04 APERTURE END LIST*
D10*
X41631009Y-97404761D02*
X41678628Y-97261904D01*
X41678628Y-97261904D02*
X41726247Y-97214285D01*
X41726247Y-97214285D02*
X41821485Y-97166666D01*
X41821485Y-97166666D02*
X41964342Y-97166666D01*
X41964342Y-97166666D02*
X42059580Y-97214285D01*
X42059580Y-97214285D02*
X42107200Y-97261904D01*
X42107200Y-97261904D02*
X42154819Y-97357142D01*
X42154819Y-97357142D02*
X42154819Y-97738094D01*
X42154819Y-97738094D02*
X41154819Y-97738094D01*
X41154819Y-97738094D02*
X41154819Y-97404761D01*
X41154819Y-97404761D02*
X41202438Y-97309523D01*
X41202438Y-97309523D02*
X41250057Y-97261904D01*
X41250057Y-97261904D02*
X41345295Y-97214285D01*
X41345295Y-97214285D02*
X41440533Y-97214285D01*
X41440533Y-97214285D02*
X41535771Y-97261904D01*
X41535771Y-97261904D02*
X41583390Y-97309523D01*
X41583390Y-97309523D02*
X41631009Y-97404761D01*
X41631009Y-97404761D02*
X41631009Y-97738094D01*
X42154819Y-96214285D02*
X42154819Y-96785713D01*
X42154819Y-96499999D02*
X41154819Y-96499999D01*
X41154819Y-96499999D02*
X41297676Y-96595237D01*
X41297676Y-96595237D02*
X41392914Y-96690475D01*
X41392914Y-96690475D02*
X41440533Y-96785713D01*
D11*
X42790000Y-100060000D02*
X50610000Y-100060000D01*
X44390000Y-100060000D02*
X44390000Y-99140000D01*
X50610000Y-100060000D02*
X50610000Y-93940000D01*
X46750000Y-99300000D02*
X48350000Y-99300000D01*
X48350000Y-99300000D02*
X48350000Y-98300000D01*
X42790000Y-99140000D02*
X42790000Y-100060000D01*
X44390000Y-99140000D02*
X42790000Y-99140000D01*
X44390000Y-98860000D02*
X44390000Y-99140000D01*
X44390000Y-98860000D02*
X43175000Y-98860000D01*
X48350000Y-98800000D02*
X50610000Y-98800000D01*
X46750000Y-98300000D02*
X46750000Y-99300000D01*
X48350000Y-98300000D02*
X46750000Y-98300000D01*
X48350000Y-98300000D02*
X50610000Y-98300000D01*
X46250000Y-97500000D02*
X46250000Y-96500000D01*
X50610000Y-97500000D02*
X46250000Y-97500000D01*
X46250000Y-96500000D02*
X50610000Y-96500000D01*
X46750000Y-95700000D02*
X46750000Y-94700000D01*
X48350000Y-95700000D02*
X46750000Y-95700000D01*
X42790000Y-94860000D02*
X44390000Y-94860000D01*
X44390000Y-94860000D02*
X44390000Y-95140000D01*
X46750000Y-94700000D02*
X48350000Y-94700000D01*
X48350000Y-94700000D02*
X48350000Y-95700000D01*
X42790000Y-93940000D02*
X42790000Y-94860000D01*
X44390000Y-93940000D02*
X44390000Y-94860000D01*
X50610000Y-93940000D02*
X42790000Y-93940000D01*
%LPC*%
D12*
X35380000Y-106240000D03*
X37920000Y-106240000D03*
X40460000Y-106240000D03*
X43000000Y-106240000D03*
X45540000Y-106240000D03*
X48080000Y-106240000D03*
X50620000Y-106240000D03*
X50620000Y-91000000D03*
X48080000Y-91000000D03*
X45540000Y-91000000D03*
X43000000Y-91000000D03*
X40460000Y-91000000D03*
X37920000Y-91000000D03*
X35380000Y-91000000D03*
D13*
X42683000Y-102565000D03*
X40778000Y-102565000D03*
D14*
X44250000Y-96000000D03*
D15*
X44250000Y-98000000D03*
D16*
X92420000Y-59500000D03*
D17*
X93690000Y-56960000D03*
D18*
X97500000Y-59500000D03*
D17*
X100040000Y-54420000D03*
D16*
X102580000Y-59500000D03*
X121580000Y-97500000D03*
D17*
X120310000Y-100040000D03*
D18*
X116500000Y-97500000D03*
D17*
X113960000Y-102580000D03*
D16*
X111420000Y-97500000D03*
X35420000Y-40500000D03*
D17*
X36690000Y-37960000D03*
D18*
X40500000Y-40500000D03*
D17*
X43040000Y-35420000D03*
D16*
X45580000Y-40500000D03*
X54420000Y-59500000D03*
D17*
X55690000Y-56960000D03*
D18*
X59500000Y-59500000D03*
D17*
X62040000Y-54420000D03*
D16*
X64580000Y-59500000D03*
X73420000Y-59500000D03*
D17*
X74690000Y-56960000D03*
D18*
X78500000Y-59500000D03*
D17*
X81040000Y-54420000D03*
D16*
X83580000Y-59500000D03*
X73420000Y-78500000D03*
D17*
X74690000Y-75960000D03*
D18*
X78500000Y-78500000D03*
D17*
X81040000Y-73420000D03*
D16*
X83580000Y-78500000D03*
D19*
X32350000Y-71500000D03*
X32350000Y-69000000D03*
X32350000Y-66500000D03*
D16*
X35420000Y-59500000D03*
D17*
X36690000Y-56960000D03*
D18*
X40500000Y-59500000D03*
D17*
X43040000Y-54420000D03*
D16*
X45580000Y-59500000D03*
X92420000Y-78500000D03*
D17*
X93690000Y-75960000D03*
D18*
X97500000Y-78500000D03*
D17*
X100040000Y-73420000D03*
D16*
X102580000Y-78500000D03*
X111420000Y-78500000D03*
D17*
X112690000Y-75960000D03*
D18*
X116500000Y-78500000D03*
D17*
X119040000Y-73420000D03*
D16*
X121580000Y-78500000D03*
X54420000Y-78500000D03*
D17*
X55690000Y-75960000D03*
D18*
X59500000Y-78500000D03*
D17*
X62040000Y-73420000D03*
D16*
X64580000Y-78500000D03*
X111420000Y-59500000D03*
D17*
X112690000Y-56960000D03*
D18*
X116500000Y-59500000D03*
D17*
X119040000Y-54420000D03*
D16*
X121580000Y-59500000D03*
X102580000Y-97500000D03*
D17*
X101310000Y-100040000D03*
D18*
X97500000Y-97500000D03*
D17*
X94960000Y-102580000D03*
D16*
X92420000Y-97500000D03*
X54420000Y-40500000D03*
D17*
X55690000Y-37960000D03*
D18*
X59500000Y-40500000D03*
D17*
X62040000Y-35420000D03*
D16*
X64580000Y-40500000D03*
X35420000Y-78500000D03*
D17*
X36690000Y-75960000D03*
D18*
X40500000Y-78500000D03*
D17*
X43040000Y-73420000D03*
D16*
X45580000Y-78500000D03*
X111420000Y-40500000D03*
D17*
X112690000Y-37960000D03*
D18*
X116500000Y-40500000D03*
D17*
X119040000Y-35420000D03*
D16*
X121580000Y-40500000D03*
X92420000Y-40500000D03*
D17*
X93690000Y-37960000D03*
D18*
X97500000Y-40500000D03*
D17*
X100040000Y-35420000D03*
D16*
X102580000Y-40500000D03*
X73420000Y-40500000D03*
D17*
X74690000Y-37960000D03*
D18*
X78500000Y-40500000D03*
D17*
X81040000Y-35420000D03*
D16*
X83580000Y-40500000D03*
%LPD*%
M02*
