G04 #@! TF.GenerationSoftware,KiCad,Pcbnew,7.0.5*
G04 #@! TF.CreationDate,2023-09-30T13:53:55+09:00*
G04 #@! TF.ProjectId,thorium_pcbl,74686f72-6975-46d5-9f70-63626c2e6b69,rev?*
G04 #@! TF.SameCoordinates,Original*
G04 #@! TF.FileFunction,Legend,Bot*
G04 #@! TF.FilePolarity,Positive*
%FSLAX46Y46*%
G04 Gerber Fmt 4.6, Leading zero omitted, Abs format (unit mm)*
G04 Created by KiCad (PCBNEW 7.0.5) date 2023-09-30 13:53:55*
%MOMM*%
%LPD*%
G01*
G04 APERTURE LIST*
G04 Aperture macros list*
%AMRoundRect*
0 Rectangle with rounded corners*
0 $1 Rounding radius*
0 $2 $3 $4 $5 $6 $7 $8 $9 X,Y pos of 4 corners*
0 Add a 4 corners polygon primitive as box body*
4,1,4,$2,$3,$4,$5,$6,$7,$8,$9,$2,$3,0*
0 Add four circle primitives for the rounded corners*
1,1,$1+$1,$2,$3*
1,1,$1+$1,$4,$5*
1,1,$1+$1,$6,$7*
1,1,$1+$1,$8,$9*
0 Add four rect primitives between the rounded corners*
20,1,$1+$1,$2,$3,$4,$5,0*
20,1,$1+$1,$4,$5,$6,$7,0*
20,1,$1+$1,$6,$7,$8,$9,0*
20,1,$1+$1,$8,$9,$2,$3,0*%
G04 Aperture macros list end*
%ADD10C,0.150000*%
%ADD11C,0.200000*%
%ADD12C,1.524000*%
%ADD13O,1.500000X2.500000*%
%ADD14R,0.950000X1.200000*%
%ADD15O,1.750000X1.200000*%
%ADD16RoundRect,0.250000X0.625000X-0.350000X0.625000X0.350000X-0.625000X0.350000X-0.625000X-0.350000X0*%
%ADD17C,2.000000*%
%ADD18C,3.000000*%
%ADD19C,4.000000*%
%ADD20R,2.400000X3.000000*%
%ADD21R,2.500000X2.800000*%
%ADD22O,1.000000X1.300000*%
G04 APERTURE END LIST*
D10*
X123538094Y-105474819D02*
X122966666Y-105474819D01*
X123252380Y-106474819D02*
X123252380Y-105474819D01*
X122633332Y-106474819D02*
X122633332Y-105474819D01*
X122204761Y-106474819D02*
X122204761Y-105951009D01*
X122204761Y-105951009D02*
X122252380Y-105855771D01*
X122252380Y-105855771D02*
X122347618Y-105808152D01*
X122347618Y-105808152D02*
X122490475Y-105808152D01*
X122490475Y-105808152D02*
X122585713Y-105855771D01*
X122585713Y-105855771D02*
X122633332Y-105903390D01*
X121585713Y-106474819D02*
X121680951Y-106427200D01*
X121680951Y-106427200D02*
X121728570Y-106379580D01*
X121728570Y-106379580D02*
X121776189Y-106284342D01*
X121776189Y-106284342D02*
X121776189Y-105998628D01*
X121776189Y-105998628D02*
X121728570Y-105903390D01*
X121728570Y-105903390D02*
X121680951Y-105855771D01*
X121680951Y-105855771D02*
X121585713Y-105808152D01*
X121585713Y-105808152D02*
X121442856Y-105808152D01*
X121442856Y-105808152D02*
X121347618Y-105855771D01*
X121347618Y-105855771D02*
X121299999Y-105903390D01*
X121299999Y-105903390D02*
X121252380Y-105998628D01*
X121252380Y-105998628D02*
X121252380Y-106284342D01*
X121252380Y-106284342D02*
X121299999Y-106379580D01*
X121299999Y-106379580D02*
X121347618Y-106427200D01*
X121347618Y-106427200D02*
X121442856Y-106474819D01*
X121442856Y-106474819D02*
X121585713Y-106474819D01*
X120823808Y-106474819D02*
X120823808Y-105808152D01*
X120823808Y-105998628D02*
X120776189Y-105903390D01*
X120776189Y-105903390D02*
X120728570Y-105855771D01*
X120728570Y-105855771D02*
X120633332Y-105808152D01*
X120633332Y-105808152D02*
X120538094Y-105808152D01*
X120204760Y-106474819D02*
X120204760Y-105808152D01*
X120204760Y-105474819D02*
X120252379Y-105522438D01*
X120252379Y-105522438D02*
X120204760Y-105570057D01*
X120204760Y-105570057D02*
X120157141Y-105522438D01*
X120157141Y-105522438D02*
X120204760Y-105474819D01*
X120204760Y-105474819D02*
X120204760Y-105570057D01*
X119299999Y-105808152D02*
X119299999Y-106474819D01*
X119728570Y-105808152D02*
X119728570Y-106331961D01*
X119728570Y-106331961D02*
X119680951Y-106427200D01*
X119680951Y-106427200D02*
X119585713Y-106474819D01*
X119585713Y-106474819D02*
X119442856Y-106474819D01*
X119442856Y-106474819D02*
X119347618Y-106427200D01*
X119347618Y-106427200D02*
X119299999Y-106379580D01*
X118823808Y-106474819D02*
X118823808Y-105808152D01*
X118823808Y-105903390D02*
X118776189Y-105855771D01*
X118776189Y-105855771D02*
X118680951Y-105808152D01*
X118680951Y-105808152D02*
X118538094Y-105808152D01*
X118538094Y-105808152D02*
X118442856Y-105855771D01*
X118442856Y-105855771D02*
X118395237Y-105951009D01*
X118395237Y-105951009D02*
X118395237Y-106474819D01*
X118395237Y-105951009D02*
X118347618Y-105855771D01*
X118347618Y-105855771D02*
X118252380Y-105808152D01*
X118252380Y-105808152D02*
X118109523Y-105808152D01*
X118109523Y-105808152D02*
X118014284Y-105855771D01*
X118014284Y-105855771D02*
X117966665Y-105951009D01*
X117966665Y-105951009D02*
X117966665Y-106474819D01*
X116728570Y-106474819D02*
X116728570Y-105474819D01*
X116728570Y-105474819D02*
X116347618Y-105474819D01*
X116347618Y-105474819D02*
X116252380Y-105522438D01*
X116252380Y-105522438D02*
X116204761Y-105570057D01*
X116204761Y-105570057D02*
X116157142Y-105665295D01*
X116157142Y-105665295D02*
X116157142Y-105808152D01*
X116157142Y-105808152D02*
X116204761Y-105903390D01*
X116204761Y-105903390D02*
X116252380Y-105951009D01*
X116252380Y-105951009D02*
X116347618Y-105998628D01*
X116347618Y-105998628D02*
X116728570Y-105998628D01*
X115157142Y-106379580D02*
X115204761Y-106427200D01*
X115204761Y-106427200D02*
X115347618Y-106474819D01*
X115347618Y-106474819D02*
X115442856Y-106474819D01*
X115442856Y-106474819D02*
X115585713Y-106427200D01*
X115585713Y-106427200D02*
X115680951Y-106331961D01*
X115680951Y-106331961D02*
X115728570Y-106236723D01*
X115728570Y-106236723D02*
X115776189Y-106046247D01*
X115776189Y-106046247D02*
X115776189Y-105903390D01*
X115776189Y-105903390D02*
X115728570Y-105712914D01*
X115728570Y-105712914D02*
X115680951Y-105617676D01*
X115680951Y-105617676D02*
X115585713Y-105522438D01*
X115585713Y-105522438D02*
X115442856Y-105474819D01*
X115442856Y-105474819D02*
X115347618Y-105474819D01*
X115347618Y-105474819D02*
X115204761Y-105522438D01*
X115204761Y-105522438D02*
X115157142Y-105570057D01*
X114395237Y-105951009D02*
X114252380Y-105998628D01*
X114252380Y-105998628D02*
X114204761Y-106046247D01*
X114204761Y-106046247D02*
X114157142Y-106141485D01*
X114157142Y-106141485D02*
X114157142Y-106284342D01*
X114157142Y-106284342D02*
X114204761Y-106379580D01*
X114204761Y-106379580D02*
X114252380Y-106427200D01*
X114252380Y-106427200D02*
X114347618Y-106474819D01*
X114347618Y-106474819D02*
X114728570Y-106474819D01*
X114728570Y-106474819D02*
X114728570Y-105474819D01*
X114728570Y-105474819D02*
X114395237Y-105474819D01*
X114395237Y-105474819D02*
X114299999Y-105522438D01*
X114299999Y-105522438D02*
X114252380Y-105570057D01*
X114252380Y-105570057D02*
X114204761Y-105665295D01*
X114204761Y-105665295D02*
X114204761Y-105760533D01*
X114204761Y-105760533D02*
X114252380Y-105855771D01*
X114252380Y-105855771D02*
X114299999Y-105903390D01*
X114299999Y-105903390D02*
X114395237Y-105951009D01*
X114395237Y-105951009D02*
X114728570Y-105951009D01*
X113109522Y-105474819D02*
X112776189Y-106474819D01*
X112776189Y-106474819D02*
X112442856Y-105474819D01*
X111585713Y-106474819D02*
X112157141Y-106474819D01*
X111871427Y-106474819D02*
X111871427Y-105474819D01*
X111871427Y-105474819D02*
X111966665Y-105617676D01*
X111966665Y-105617676D02*
X112061903Y-105712914D01*
X112061903Y-105712914D02*
X112157141Y-105760533D01*
X111157141Y-106379580D02*
X111109522Y-106427200D01*
X111109522Y-106427200D02*
X111157141Y-106474819D01*
X111157141Y-106474819D02*
X111204760Y-106427200D01*
X111204760Y-106427200D02*
X111157141Y-106379580D01*
X111157141Y-106379580D02*
X111157141Y-106474819D01*
X110490475Y-105474819D02*
X110395237Y-105474819D01*
X110395237Y-105474819D02*
X110299999Y-105522438D01*
X110299999Y-105522438D02*
X110252380Y-105570057D01*
X110252380Y-105570057D02*
X110204761Y-105665295D01*
X110204761Y-105665295D02*
X110157142Y-105855771D01*
X110157142Y-105855771D02*
X110157142Y-106093866D01*
X110157142Y-106093866D02*
X110204761Y-106284342D01*
X110204761Y-106284342D02*
X110252380Y-106379580D01*
X110252380Y-106379580D02*
X110299999Y-106427200D01*
X110299999Y-106427200D02*
X110395237Y-106474819D01*
X110395237Y-106474819D02*
X110490475Y-106474819D01*
X110490475Y-106474819D02*
X110585713Y-106427200D01*
X110585713Y-106427200D02*
X110633332Y-106379580D01*
X110633332Y-106379580D02*
X110680951Y-106284342D01*
X110680951Y-106284342D02*
X110728570Y-106093866D01*
X110728570Y-106093866D02*
X110728570Y-105855771D01*
X110728570Y-105855771D02*
X110680951Y-105665295D01*
X110680951Y-105665295D02*
X110633332Y-105570057D01*
X110633332Y-105570057D02*
X110585713Y-105522438D01*
X110585713Y-105522438D02*
X110490475Y-105474819D01*
X102139048Y-105474819D02*
X102139048Y-106189104D01*
X102139048Y-106189104D02*
X102186667Y-106331961D01*
X102186667Y-106331961D02*
X102281905Y-106427200D01*
X102281905Y-106427200D02*
X102424762Y-106474819D01*
X102424762Y-106474819D02*
X102520000Y-106474819D01*
X101186667Y-106474819D02*
X101662857Y-106474819D01*
X101662857Y-106474819D02*
X101662857Y-105474819D01*
X100281905Y-106379580D02*
X100329524Y-106427200D01*
X100329524Y-106427200D02*
X100472381Y-106474819D01*
X100472381Y-106474819D02*
X100567619Y-106474819D01*
X100567619Y-106474819D02*
X100710476Y-106427200D01*
X100710476Y-106427200D02*
X100805714Y-106331961D01*
X100805714Y-106331961D02*
X100853333Y-106236723D01*
X100853333Y-106236723D02*
X100900952Y-106046247D01*
X100900952Y-106046247D02*
X100900952Y-105903390D01*
X100900952Y-105903390D02*
X100853333Y-105712914D01*
X100853333Y-105712914D02*
X100805714Y-105617676D01*
X100805714Y-105617676D02*
X100710476Y-105522438D01*
X100710476Y-105522438D02*
X100567619Y-105474819D01*
X100567619Y-105474819D02*
X100472381Y-105474819D01*
X100472381Y-105474819D02*
X100329524Y-105522438D01*
X100329524Y-105522438D02*
X100281905Y-105570057D01*
X99567619Y-105474819D02*
X99567619Y-106189104D01*
X99567619Y-106189104D02*
X99615238Y-106331961D01*
X99615238Y-106331961D02*
X99710476Y-106427200D01*
X99710476Y-106427200D02*
X99853333Y-106474819D01*
X99853333Y-106474819D02*
X99948571Y-106474819D01*
X98615238Y-106474819D02*
X99091428Y-106474819D01*
X99091428Y-106474819D02*
X99091428Y-105474819D01*
X97710476Y-106379580D02*
X97758095Y-106427200D01*
X97758095Y-106427200D02*
X97900952Y-106474819D01*
X97900952Y-106474819D02*
X97996190Y-106474819D01*
X97996190Y-106474819D02*
X98139047Y-106427200D01*
X98139047Y-106427200D02*
X98234285Y-106331961D01*
X98234285Y-106331961D02*
X98281904Y-106236723D01*
X98281904Y-106236723D02*
X98329523Y-106046247D01*
X98329523Y-106046247D02*
X98329523Y-105903390D01*
X98329523Y-105903390D02*
X98281904Y-105712914D01*
X98281904Y-105712914D02*
X98234285Y-105617676D01*
X98234285Y-105617676D02*
X98139047Y-105522438D01*
X98139047Y-105522438D02*
X97996190Y-105474819D01*
X97996190Y-105474819D02*
X97900952Y-105474819D01*
X97900952Y-105474819D02*
X97758095Y-105522438D01*
X97758095Y-105522438D02*
X97710476Y-105570057D01*
X96996190Y-105474819D02*
X96996190Y-106189104D01*
X96996190Y-106189104D02*
X97043809Y-106331961D01*
X97043809Y-106331961D02*
X97139047Y-106427200D01*
X97139047Y-106427200D02*
X97281904Y-106474819D01*
X97281904Y-106474819D02*
X97377142Y-106474819D01*
X96043809Y-106474819D02*
X96519999Y-106474819D01*
X96519999Y-106474819D02*
X96519999Y-105474819D01*
X95139047Y-106379580D02*
X95186666Y-106427200D01*
X95186666Y-106427200D02*
X95329523Y-106474819D01*
X95329523Y-106474819D02*
X95424761Y-106474819D01*
X95424761Y-106474819D02*
X95567618Y-106427200D01*
X95567618Y-106427200D02*
X95662856Y-106331961D01*
X95662856Y-106331961D02*
X95710475Y-106236723D01*
X95710475Y-106236723D02*
X95758094Y-106046247D01*
X95758094Y-106046247D02*
X95758094Y-105903390D01*
X95758094Y-105903390D02*
X95710475Y-105712914D01*
X95710475Y-105712914D02*
X95662856Y-105617676D01*
X95662856Y-105617676D02*
X95567618Y-105522438D01*
X95567618Y-105522438D02*
X95424761Y-105474819D01*
X95424761Y-105474819D02*
X95329523Y-105474819D01*
X95329523Y-105474819D02*
X95186666Y-105522438D01*
X95186666Y-105522438D02*
X95139047Y-105570057D01*
X94424761Y-105474819D02*
X94424761Y-106189104D01*
X94424761Y-106189104D02*
X94472380Y-106331961D01*
X94472380Y-106331961D02*
X94567618Y-106427200D01*
X94567618Y-106427200D02*
X94710475Y-106474819D01*
X94710475Y-106474819D02*
X94805713Y-106474819D01*
X93472380Y-106474819D02*
X93948570Y-106474819D01*
X93948570Y-106474819D02*
X93948570Y-105474819D01*
X92567618Y-106379580D02*
X92615237Y-106427200D01*
X92615237Y-106427200D02*
X92758094Y-106474819D01*
X92758094Y-106474819D02*
X92853332Y-106474819D01*
X92853332Y-106474819D02*
X92996189Y-106427200D01*
X92996189Y-106427200D02*
X93091427Y-106331961D01*
X93091427Y-106331961D02*
X93139046Y-106236723D01*
X93139046Y-106236723D02*
X93186665Y-106046247D01*
X93186665Y-106046247D02*
X93186665Y-105903390D01*
X93186665Y-105903390D02*
X93139046Y-105712914D01*
X93139046Y-105712914D02*
X93091427Y-105617676D01*
X93091427Y-105617676D02*
X92996189Y-105522438D01*
X92996189Y-105522438D02*
X92853332Y-105474819D01*
X92853332Y-105474819D02*
X92758094Y-105474819D01*
X92758094Y-105474819D02*
X92615237Y-105522438D01*
X92615237Y-105522438D02*
X92567618Y-105570057D01*
X98833332Y-63907200D02*
X98690475Y-63954819D01*
X98690475Y-63954819D02*
X98452380Y-63954819D01*
X98452380Y-63954819D02*
X98357142Y-63907200D01*
X98357142Y-63907200D02*
X98309523Y-63859580D01*
X98309523Y-63859580D02*
X98261904Y-63764342D01*
X98261904Y-63764342D02*
X98261904Y-63669104D01*
X98261904Y-63669104D02*
X98309523Y-63573866D01*
X98309523Y-63573866D02*
X98357142Y-63526247D01*
X98357142Y-63526247D02*
X98452380Y-63478628D01*
X98452380Y-63478628D02*
X98642856Y-63431009D01*
X98642856Y-63431009D02*
X98738094Y-63383390D01*
X98738094Y-63383390D02*
X98785713Y-63335771D01*
X98785713Y-63335771D02*
X98833332Y-63240533D01*
X98833332Y-63240533D02*
X98833332Y-63145295D01*
X98833332Y-63145295D02*
X98785713Y-63050057D01*
X98785713Y-63050057D02*
X98738094Y-63002438D01*
X98738094Y-63002438D02*
X98642856Y-62954819D01*
X98642856Y-62954819D02*
X98404761Y-62954819D01*
X98404761Y-62954819D02*
X98261904Y-63002438D01*
X97928570Y-62954819D02*
X97690475Y-63954819D01*
X97690475Y-63954819D02*
X97499999Y-63240533D01*
X97499999Y-63240533D02*
X97309523Y-63954819D01*
X97309523Y-63954819D02*
X97071428Y-62954819D01*
X96642856Y-63954819D02*
X96452380Y-63954819D01*
X96452380Y-63954819D02*
X96357142Y-63907200D01*
X96357142Y-63907200D02*
X96309523Y-63859580D01*
X96309523Y-63859580D02*
X96214285Y-63716723D01*
X96214285Y-63716723D02*
X96166666Y-63526247D01*
X96166666Y-63526247D02*
X96166666Y-63145295D01*
X96166666Y-63145295D02*
X96214285Y-63050057D01*
X96214285Y-63050057D02*
X96261904Y-63002438D01*
X96261904Y-63002438D02*
X96357142Y-62954819D01*
X96357142Y-62954819D02*
X96547618Y-62954819D01*
X96547618Y-62954819D02*
X96642856Y-63002438D01*
X96642856Y-63002438D02*
X96690475Y-63050057D01*
X96690475Y-63050057D02*
X96738094Y-63145295D01*
X96738094Y-63145295D02*
X96738094Y-63383390D01*
X96738094Y-63383390D02*
X96690475Y-63478628D01*
X96690475Y-63478628D02*
X96642856Y-63526247D01*
X96642856Y-63526247D02*
X96547618Y-63573866D01*
X96547618Y-63573866D02*
X96357142Y-63573866D01*
X96357142Y-63573866D02*
X96261904Y-63526247D01*
X96261904Y-63526247D02*
X96214285Y-63478628D01*
X96214285Y-63478628D02*
X96166666Y-63383390D01*
X118309523Y-93907200D02*
X118166666Y-93954819D01*
X118166666Y-93954819D02*
X117928571Y-93954819D01*
X117928571Y-93954819D02*
X117833333Y-93907200D01*
X117833333Y-93907200D02*
X117785714Y-93859580D01*
X117785714Y-93859580D02*
X117738095Y-93764342D01*
X117738095Y-93764342D02*
X117738095Y-93669104D01*
X117738095Y-93669104D02*
X117785714Y-93573866D01*
X117785714Y-93573866D02*
X117833333Y-93526247D01*
X117833333Y-93526247D02*
X117928571Y-93478628D01*
X117928571Y-93478628D02*
X118119047Y-93431009D01*
X118119047Y-93431009D02*
X118214285Y-93383390D01*
X118214285Y-93383390D02*
X118261904Y-93335771D01*
X118261904Y-93335771D02*
X118309523Y-93240533D01*
X118309523Y-93240533D02*
X118309523Y-93145295D01*
X118309523Y-93145295D02*
X118261904Y-93050057D01*
X118261904Y-93050057D02*
X118214285Y-93002438D01*
X118214285Y-93002438D02*
X118119047Y-92954819D01*
X118119047Y-92954819D02*
X117880952Y-92954819D01*
X117880952Y-92954819D02*
X117738095Y-93002438D01*
X117404761Y-92954819D02*
X117166666Y-93954819D01*
X117166666Y-93954819D02*
X116976190Y-93240533D01*
X116976190Y-93240533D02*
X116785714Y-93954819D01*
X116785714Y-93954819D02*
X116547619Y-92954819D01*
X115642857Y-93954819D02*
X116214285Y-93954819D01*
X115928571Y-93954819D02*
X115928571Y-92954819D01*
X115928571Y-92954819D02*
X116023809Y-93097676D01*
X116023809Y-93097676D02*
X116119047Y-93192914D01*
X116119047Y-93192914D02*
X116214285Y-93240533D01*
X115309523Y-92954819D02*
X114642857Y-92954819D01*
X114642857Y-92954819D02*
X115071428Y-93954819D01*
X41833332Y-44907200D02*
X41690475Y-44954819D01*
X41690475Y-44954819D02*
X41452380Y-44954819D01*
X41452380Y-44954819D02*
X41357142Y-44907200D01*
X41357142Y-44907200D02*
X41309523Y-44859580D01*
X41309523Y-44859580D02*
X41261904Y-44764342D01*
X41261904Y-44764342D02*
X41261904Y-44669104D01*
X41261904Y-44669104D02*
X41309523Y-44573866D01*
X41309523Y-44573866D02*
X41357142Y-44526247D01*
X41357142Y-44526247D02*
X41452380Y-44478628D01*
X41452380Y-44478628D02*
X41642856Y-44431009D01*
X41642856Y-44431009D02*
X41738094Y-44383390D01*
X41738094Y-44383390D02*
X41785713Y-44335771D01*
X41785713Y-44335771D02*
X41833332Y-44240533D01*
X41833332Y-44240533D02*
X41833332Y-44145295D01*
X41833332Y-44145295D02*
X41785713Y-44050057D01*
X41785713Y-44050057D02*
X41738094Y-44002438D01*
X41738094Y-44002438D02*
X41642856Y-43954819D01*
X41642856Y-43954819D02*
X41404761Y-43954819D01*
X41404761Y-43954819D02*
X41261904Y-44002438D01*
X40928570Y-43954819D02*
X40690475Y-44954819D01*
X40690475Y-44954819D02*
X40499999Y-44240533D01*
X40499999Y-44240533D02*
X40309523Y-44954819D01*
X40309523Y-44954819D02*
X40071428Y-43954819D01*
X39166666Y-44954819D02*
X39738094Y-44954819D01*
X39452380Y-44954819D02*
X39452380Y-43954819D01*
X39452380Y-43954819D02*
X39547618Y-44097676D01*
X39547618Y-44097676D02*
X39642856Y-44192914D01*
X39642856Y-44192914D02*
X39738094Y-44240533D01*
X60833332Y-63907200D02*
X60690475Y-63954819D01*
X60690475Y-63954819D02*
X60452380Y-63954819D01*
X60452380Y-63954819D02*
X60357142Y-63907200D01*
X60357142Y-63907200D02*
X60309523Y-63859580D01*
X60309523Y-63859580D02*
X60261904Y-63764342D01*
X60261904Y-63764342D02*
X60261904Y-63669104D01*
X60261904Y-63669104D02*
X60309523Y-63573866D01*
X60309523Y-63573866D02*
X60357142Y-63526247D01*
X60357142Y-63526247D02*
X60452380Y-63478628D01*
X60452380Y-63478628D02*
X60642856Y-63431009D01*
X60642856Y-63431009D02*
X60738094Y-63383390D01*
X60738094Y-63383390D02*
X60785713Y-63335771D01*
X60785713Y-63335771D02*
X60833332Y-63240533D01*
X60833332Y-63240533D02*
X60833332Y-63145295D01*
X60833332Y-63145295D02*
X60785713Y-63050057D01*
X60785713Y-63050057D02*
X60738094Y-63002438D01*
X60738094Y-63002438D02*
X60642856Y-62954819D01*
X60642856Y-62954819D02*
X60404761Y-62954819D01*
X60404761Y-62954819D02*
X60261904Y-63002438D01*
X59928570Y-62954819D02*
X59690475Y-63954819D01*
X59690475Y-63954819D02*
X59499999Y-63240533D01*
X59499999Y-63240533D02*
X59309523Y-63954819D01*
X59309523Y-63954819D02*
X59071428Y-62954819D01*
X58785713Y-62954819D02*
X58119047Y-62954819D01*
X58119047Y-62954819D02*
X58547618Y-63954819D01*
X79833332Y-63907200D02*
X79690475Y-63954819D01*
X79690475Y-63954819D02*
X79452380Y-63954819D01*
X79452380Y-63954819D02*
X79357142Y-63907200D01*
X79357142Y-63907200D02*
X79309523Y-63859580D01*
X79309523Y-63859580D02*
X79261904Y-63764342D01*
X79261904Y-63764342D02*
X79261904Y-63669104D01*
X79261904Y-63669104D02*
X79309523Y-63573866D01*
X79309523Y-63573866D02*
X79357142Y-63526247D01*
X79357142Y-63526247D02*
X79452380Y-63478628D01*
X79452380Y-63478628D02*
X79642856Y-63431009D01*
X79642856Y-63431009D02*
X79738094Y-63383390D01*
X79738094Y-63383390D02*
X79785713Y-63335771D01*
X79785713Y-63335771D02*
X79833332Y-63240533D01*
X79833332Y-63240533D02*
X79833332Y-63145295D01*
X79833332Y-63145295D02*
X79785713Y-63050057D01*
X79785713Y-63050057D02*
X79738094Y-63002438D01*
X79738094Y-63002438D02*
X79642856Y-62954819D01*
X79642856Y-62954819D02*
X79404761Y-62954819D01*
X79404761Y-62954819D02*
X79261904Y-63002438D01*
X78928570Y-62954819D02*
X78690475Y-63954819D01*
X78690475Y-63954819D02*
X78499999Y-63240533D01*
X78499999Y-63240533D02*
X78309523Y-63954819D01*
X78309523Y-63954819D02*
X78071428Y-62954819D01*
X77547618Y-63383390D02*
X77642856Y-63335771D01*
X77642856Y-63335771D02*
X77690475Y-63288152D01*
X77690475Y-63288152D02*
X77738094Y-63192914D01*
X77738094Y-63192914D02*
X77738094Y-63145295D01*
X77738094Y-63145295D02*
X77690475Y-63050057D01*
X77690475Y-63050057D02*
X77642856Y-63002438D01*
X77642856Y-63002438D02*
X77547618Y-62954819D01*
X77547618Y-62954819D02*
X77357142Y-62954819D01*
X77357142Y-62954819D02*
X77261904Y-63002438D01*
X77261904Y-63002438D02*
X77214285Y-63050057D01*
X77214285Y-63050057D02*
X77166666Y-63145295D01*
X77166666Y-63145295D02*
X77166666Y-63192914D01*
X77166666Y-63192914D02*
X77214285Y-63288152D01*
X77214285Y-63288152D02*
X77261904Y-63335771D01*
X77261904Y-63335771D02*
X77357142Y-63383390D01*
X77357142Y-63383390D02*
X77547618Y-63383390D01*
X77547618Y-63383390D02*
X77642856Y-63431009D01*
X77642856Y-63431009D02*
X77690475Y-63478628D01*
X77690475Y-63478628D02*
X77738094Y-63573866D01*
X77738094Y-63573866D02*
X77738094Y-63764342D01*
X77738094Y-63764342D02*
X77690475Y-63859580D01*
X77690475Y-63859580D02*
X77642856Y-63907200D01*
X77642856Y-63907200D02*
X77547618Y-63954819D01*
X77547618Y-63954819D02*
X77357142Y-63954819D01*
X77357142Y-63954819D02*
X77261904Y-63907200D01*
X77261904Y-63907200D02*
X77214285Y-63859580D01*
X77214285Y-63859580D02*
X77166666Y-63764342D01*
X77166666Y-63764342D02*
X77166666Y-63573866D01*
X77166666Y-63573866D02*
X77214285Y-63478628D01*
X77214285Y-63478628D02*
X77261904Y-63431009D01*
X77261904Y-63431009D02*
X77357142Y-63383390D01*
X80309523Y-82907200D02*
X80166666Y-82954819D01*
X80166666Y-82954819D02*
X79928571Y-82954819D01*
X79928571Y-82954819D02*
X79833333Y-82907200D01*
X79833333Y-82907200D02*
X79785714Y-82859580D01*
X79785714Y-82859580D02*
X79738095Y-82764342D01*
X79738095Y-82764342D02*
X79738095Y-82669104D01*
X79738095Y-82669104D02*
X79785714Y-82573866D01*
X79785714Y-82573866D02*
X79833333Y-82526247D01*
X79833333Y-82526247D02*
X79928571Y-82478628D01*
X79928571Y-82478628D02*
X80119047Y-82431009D01*
X80119047Y-82431009D02*
X80214285Y-82383390D01*
X80214285Y-82383390D02*
X80261904Y-82335771D01*
X80261904Y-82335771D02*
X80309523Y-82240533D01*
X80309523Y-82240533D02*
X80309523Y-82145295D01*
X80309523Y-82145295D02*
X80261904Y-82050057D01*
X80261904Y-82050057D02*
X80214285Y-82002438D01*
X80214285Y-82002438D02*
X80119047Y-81954819D01*
X80119047Y-81954819D02*
X79880952Y-81954819D01*
X79880952Y-81954819D02*
X79738095Y-82002438D01*
X79404761Y-81954819D02*
X79166666Y-82954819D01*
X79166666Y-82954819D02*
X78976190Y-82240533D01*
X78976190Y-82240533D02*
X78785714Y-82954819D01*
X78785714Y-82954819D02*
X78547619Y-81954819D01*
X77642857Y-82954819D02*
X78214285Y-82954819D01*
X77928571Y-82954819D02*
X77928571Y-81954819D01*
X77928571Y-81954819D02*
X78023809Y-82097676D01*
X78023809Y-82097676D02*
X78119047Y-82192914D01*
X78119047Y-82192914D02*
X78214285Y-82240533D01*
X77309523Y-81954819D02*
X76690476Y-81954819D01*
X76690476Y-81954819D02*
X77023809Y-82335771D01*
X77023809Y-82335771D02*
X76880952Y-82335771D01*
X76880952Y-82335771D02*
X76785714Y-82383390D01*
X76785714Y-82383390D02*
X76738095Y-82431009D01*
X76738095Y-82431009D02*
X76690476Y-82526247D01*
X76690476Y-82526247D02*
X76690476Y-82764342D01*
X76690476Y-82764342D02*
X76738095Y-82859580D01*
X76738095Y-82859580D02*
X76785714Y-82907200D01*
X76785714Y-82907200D02*
X76880952Y-82954819D01*
X76880952Y-82954819D02*
X77166666Y-82954819D01*
X77166666Y-82954819D02*
X77261904Y-82907200D01*
X77261904Y-82907200D02*
X77309523Y-82859580D01*
X41833332Y-63907200D02*
X41690475Y-63954819D01*
X41690475Y-63954819D02*
X41452380Y-63954819D01*
X41452380Y-63954819D02*
X41357142Y-63907200D01*
X41357142Y-63907200D02*
X41309523Y-63859580D01*
X41309523Y-63859580D02*
X41261904Y-63764342D01*
X41261904Y-63764342D02*
X41261904Y-63669104D01*
X41261904Y-63669104D02*
X41309523Y-63573866D01*
X41309523Y-63573866D02*
X41357142Y-63526247D01*
X41357142Y-63526247D02*
X41452380Y-63478628D01*
X41452380Y-63478628D02*
X41642856Y-63431009D01*
X41642856Y-63431009D02*
X41738094Y-63383390D01*
X41738094Y-63383390D02*
X41785713Y-63335771D01*
X41785713Y-63335771D02*
X41833332Y-63240533D01*
X41833332Y-63240533D02*
X41833332Y-63145295D01*
X41833332Y-63145295D02*
X41785713Y-63050057D01*
X41785713Y-63050057D02*
X41738094Y-63002438D01*
X41738094Y-63002438D02*
X41642856Y-62954819D01*
X41642856Y-62954819D02*
X41404761Y-62954819D01*
X41404761Y-62954819D02*
X41261904Y-63002438D01*
X40928570Y-62954819D02*
X40690475Y-63954819D01*
X40690475Y-63954819D02*
X40499999Y-63240533D01*
X40499999Y-63240533D02*
X40309523Y-63954819D01*
X40309523Y-63954819D02*
X40071428Y-62954819D01*
X39261904Y-62954819D02*
X39452380Y-62954819D01*
X39452380Y-62954819D02*
X39547618Y-63002438D01*
X39547618Y-63002438D02*
X39595237Y-63050057D01*
X39595237Y-63050057D02*
X39690475Y-63192914D01*
X39690475Y-63192914D02*
X39738094Y-63383390D01*
X39738094Y-63383390D02*
X39738094Y-63764342D01*
X39738094Y-63764342D02*
X39690475Y-63859580D01*
X39690475Y-63859580D02*
X39642856Y-63907200D01*
X39642856Y-63907200D02*
X39547618Y-63954819D01*
X39547618Y-63954819D02*
X39357142Y-63954819D01*
X39357142Y-63954819D02*
X39261904Y-63907200D01*
X39261904Y-63907200D02*
X39214285Y-63859580D01*
X39214285Y-63859580D02*
X39166666Y-63764342D01*
X39166666Y-63764342D02*
X39166666Y-63526247D01*
X39166666Y-63526247D02*
X39214285Y-63431009D01*
X39214285Y-63431009D02*
X39261904Y-63383390D01*
X39261904Y-63383390D02*
X39357142Y-63335771D01*
X39357142Y-63335771D02*
X39547618Y-63335771D01*
X39547618Y-63335771D02*
X39642856Y-63383390D01*
X39642856Y-63383390D02*
X39690475Y-63431009D01*
X39690475Y-63431009D02*
X39738094Y-63526247D01*
X99309523Y-82907200D02*
X99166666Y-82954819D01*
X99166666Y-82954819D02*
X98928571Y-82954819D01*
X98928571Y-82954819D02*
X98833333Y-82907200D01*
X98833333Y-82907200D02*
X98785714Y-82859580D01*
X98785714Y-82859580D02*
X98738095Y-82764342D01*
X98738095Y-82764342D02*
X98738095Y-82669104D01*
X98738095Y-82669104D02*
X98785714Y-82573866D01*
X98785714Y-82573866D02*
X98833333Y-82526247D01*
X98833333Y-82526247D02*
X98928571Y-82478628D01*
X98928571Y-82478628D02*
X99119047Y-82431009D01*
X99119047Y-82431009D02*
X99214285Y-82383390D01*
X99214285Y-82383390D02*
X99261904Y-82335771D01*
X99261904Y-82335771D02*
X99309523Y-82240533D01*
X99309523Y-82240533D02*
X99309523Y-82145295D01*
X99309523Y-82145295D02*
X99261904Y-82050057D01*
X99261904Y-82050057D02*
X99214285Y-82002438D01*
X99214285Y-82002438D02*
X99119047Y-81954819D01*
X99119047Y-81954819D02*
X98880952Y-81954819D01*
X98880952Y-81954819D02*
X98738095Y-82002438D01*
X98404761Y-81954819D02*
X98166666Y-82954819D01*
X98166666Y-82954819D02*
X97976190Y-82240533D01*
X97976190Y-82240533D02*
X97785714Y-82954819D01*
X97785714Y-82954819D02*
X97547619Y-81954819D01*
X96642857Y-82954819D02*
X97214285Y-82954819D01*
X96928571Y-82954819D02*
X96928571Y-81954819D01*
X96928571Y-81954819D02*
X97023809Y-82097676D01*
X97023809Y-82097676D02*
X97119047Y-82192914D01*
X97119047Y-82192914D02*
X97214285Y-82240533D01*
X95785714Y-82288152D02*
X95785714Y-82954819D01*
X96023809Y-81907200D02*
X96261904Y-82621485D01*
X96261904Y-82621485D02*
X95642857Y-82621485D01*
X118309523Y-82907200D02*
X118166666Y-82954819D01*
X118166666Y-82954819D02*
X117928571Y-82954819D01*
X117928571Y-82954819D02*
X117833333Y-82907200D01*
X117833333Y-82907200D02*
X117785714Y-82859580D01*
X117785714Y-82859580D02*
X117738095Y-82764342D01*
X117738095Y-82764342D02*
X117738095Y-82669104D01*
X117738095Y-82669104D02*
X117785714Y-82573866D01*
X117785714Y-82573866D02*
X117833333Y-82526247D01*
X117833333Y-82526247D02*
X117928571Y-82478628D01*
X117928571Y-82478628D02*
X118119047Y-82431009D01*
X118119047Y-82431009D02*
X118214285Y-82383390D01*
X118214285Y-82383390D02*
X118261904Y-82335771D01*
X118261904Y-82335771D02*
X118309523Y-82240533D01*
X118309523Y-82240533D02*
X118309523Y-82145295D01*
X118309523Y-82145295D02*
X118261904Y-82050057D01*
X118261904Y-82050057D02*
X118214285Y-82002438D01*
X118214285Y-82002438D02*
X118119047Y-81954819D01*
X118119047Y-81954819D02*
X117880952Y-81954819D01*
X117880952Y-81954819D02*
X117738095Y-82002438D01*
X117404761Y-81954819D02*
X117166666Y-82954819D01*
X117166666Y-82954819D02*
X116976190Y-82240533D01*
X116976190Y-82240533D02*
X116785714Y-82954819D01*
X116785714Y-82954819D02*
X116547619Y-81954819D01*
X115642857Y-82954819D02*
X116214285Y-82954819D01*
X115928571Y-82954819D02*
X115928571Y-81954819D01*
X115928571Y-81954819D02*
X116023809Y-82097676D01*
X116023809Y-82097676D02*
X116119047Y-82192914D01*
X116119047Y-82192914D02*
X116214285Y-82240533D01*
X114738095Y-81954819D02*
X115214285Y-81954819D01*
X115214285Y-81954819D02*
X115261904Y-82431009D01*
X115261904Y-82431009D02*
X115214285Y-82383390D01*
X115214285Y-82383390D02*
X115119047Y-82335771D01*
X115119047Y-82335771D02*
X114880952Y-82335771D01*
X114880952Y-82335771D02*
X114785714Y-82383390D01*
X114785714Y-82383390D02*
X114738095Y-82431009D01*
X114738095Y-82431009D02*
X114690476Y-82526247D01*
X114690476Y-82526247D02*
X114690476Y-82764342D01*
X114690476Y-82764342D02*
X114738095Y-82859580D01*
X114738095Y-82859580D02*
X114785714Y-82907200D01*
X114785714Y-82907200D02*
X114880952Y-82954819D01*
X114880952Y-82954819D02*
X115119047Y-82954819D01*
X115119047Y-82954819D02*
X115214285Y-82907200D01*
X115214285Y-82907200D02*
X115261904Y-82859580D01*
X61309523Y-82907200D02*
X61166666Y-82954819D01*
X61166666Y-82954819D02*
X60928571Y-82954819D01*
X60928571Y-82954819D02*
X60833333Y-82907200D01*
X60833333Y-82907200D02*
X60785714Y-82859580D01*
X60785714Y-82859580D02*
X60738095Y-82764342D01*
X60738095Y-82764342D02*
X60738095Y-82669104D01*
X60738095Y-82669104D02*
X60785714Y-82573866D01*
X60785714Y-82573866D02*
X60833333Y-82526247D01*
X60833333Y-82526247D02*
X60928571Y-82478628D01*
X60928571Y-82478628D02*
X61119047Y-82431009D01*
X61119047Y-82431009D02*
X61214285Y-82383390D01*
X61214285Y-82383390D02*
X61261904Y-82335771D01*
X61261904Y-82335771D02*
X61309523Y-82240533D01*
X61309523Y-82240533D02*
X61309523Y-82145295D01*
X61309523Y-82145295D02*
X61261904Y-82050057D01*
X61261904Y-82050057D02*
X61214285Y-82002438D01*
X61214285Y-82002438D02*
X61119047Y-81954819D01*
X61119047Y-81954819D02*
X60880952Y-81954819D01*
X60880952Y-81954819D02*
X60738095Y-82002438D01*
X60404761Y-81954819D02*
X60166666Y-82954819D01*
X60166666Y-82954819D02*
X59976190Y-82240533D01*
X59976190Y-82240533D02*
X59785714Y-82954819D01*
X59785714Y-82954819D02*
X59547619Y-81954819D01*
X58642857Y-82954819D02*
X59214285Y-82954819D01*
X58928571Y-82954819D02*
X58928571Y-81954819D01*
X58928571Y-81954819D02*
X59023809Y-82097676D01*
X59023809Y-82097676D02*
X59119047Y-82192914D01*
X59119047Y-82192914D02*
X59214285Y-82240533D01*
X58261904Y-82050057D02*
X58214285Y-82002438D01*
X58214285Y-82002438D02*
X58119047Y-81954819D01*
X58119047Y-81954819D02*
X57880952Y-81954819D01*
X57880952Y-81954819D02*
X57785714Y-82002438D01*
X57785714Y-82002438D02*
X57738095Y-82050057D01*
X57738095Y-82050057D02*
X57690476Y-82145295D01*
X57690476Y-82145295D02*
X57690476Y-82240533D01*
X57690476Y-82240533D02*
X57738095Y-82383390D01*
X57738095Y-82383390D02*
X58309523Y-82954819D01*
X58309523Y-82954819D02*
X57690476Y-82954819D01*
X118309523Y-63907200D02*
X118166666Y-63954819D01*
X118166666Y-63954819D02*
X117928571Y-63954819D01*
X117928571Y-63954819D02*
X117833333Y-63907200D01*
X117833333Y-63907200D02*
X117785714Y-63859580D01*
X117785714Y-63859580D02*
X117738095Y-63764342D01*
X117738095Y-63764342D02*
X117738095Y-63669104D01*
X117738095Y-63669104D02*
X117785714Y-63573866D01*
X117785714Y-63573866D02*
X117833333Y-63526247D01*
X117833333Y-63526247D02*
X117928571Y-63478628D01*
X117928571Y-63478628D02*
X118119047Y-63431009D01*
X118119047Y-63431009D02*
X118214285Y-63383390D01*
X118214285Y-63383390D02*
X118261904Y-63335771D01*
X118261904Y-63335771D02*
X118309523Y-63240533D01*
X118309523Y-63240533D02*
X118309523Y-63145295D01*
X118309523Y-63145295D02*
X118261904Y-63050057D01*
X118261904Y-63050057D02*
X118214285Y-63002438D01*
X118214285Y-63002438D02*
X118119047Y-62954819D01*
X118119047Y-62954819D02*
X117880952Y-62954819D01*
X117880952Y-62954819D02*
X117738095Y-63002438D01*
X117404761Y-62954819D02*
X117166666Y-63954819D01*
X117166666Y-63954819D02*
X116976190Y-63240533D01*
X116976190Y-63240533D02*
X116785714Y-63954819D01*
X116785714Y-63954819D02*
X116547619Y-62954819D01*
X115642857Y-63954819D02*
X116214285Y-63954819D01*
X115928571Y-63954819D02*
X115928571Y-62954819D01*
X115928571Y-62954819D02*
X116023809Y-63097676D01*
X116023809Y-63097676D02*
X116119047Y-63192914D01*
X116119047Y-63192914D02*
X116214285Y-63240533D01*
X115023809Y-62954819D02*
X114928571Y-62954819D01*
X114928571Y-62954819D02*
X114833333Y-63002438D01*
X114833333Y-63002438D02*
X114785714Y-63050057D01*
X114785714Y-63050057D02*
X114738095Y-63145295D01*
X114738095Y-63145295D02*
X114690476Y-63335771D01*
X114690476Y-63335771D02*
X114690476Y-63573866D01*
X114690476Y-63573866D02*
X114738095Y-63764342D01*
X114738095Y-63764342D02*
X114785714Y-63859580D01*
X114785714Y-63859580D02*
X114833333Y-63907200D01*
X114833333Y-63907200D02*
X114928571Y-63954819D01*
X114928571Y-63954819D02*
X115023809Y-63954819D01*
X115023809Y-63954819D02*
X115119047Y-63907200D01*
X115119047Y-63907200D02*
X115166666Y-63859580D01*
X115166666Y-63859580D02*
X115214285Y-63764342D01*
X115214285Y-63764342D02*
X115261904Y-63573866D01*
X115261904Y-63573866D02*
X115261904Y-63335771D01*
X115261904Y-63335771D02*
X115214285Y-63145295D01*
X115214285Y-63145295D02*
X115166666Y-63050057D01*
X115166666Y-63050057D02*
X115119047Y-63002438D01*
X115119047Y-63002438D02*
X115023809Y-62954819D01*
X99309523Y-93907200D02*
X99166666Y-93954819D01*
X99166666Y-93954819D02*
X98928571Y-93954819D01*
X98928571Y-93954819D02*
X98833333Y-93907200D01*
X98833333Y-93907200D02*
X98785714Y-93859580D01*
X98785714Y-93859580D02*
X98738095Y-93764342D01*
X98738095Y-93764342D02*
X98738095Y-93669104D01*
X98738095Y-93669104D02*
X98785714Y-93573866D01*
X98785714Y-93573866D02*
X98833333Y-93526247D01*
X98833333Y-93526247D02*
X98928571Y-93478628D01*
X98928571Y-93478628D02*
X99119047Y-93431009D01*
X99119047Y-93431009D02*
X99214285Y-93383390D01*
X99214285Y-93383390D02*
X99261904Y-93335771D01*
X99261904Y-93335771D02*
X99309523Y-93240533D01*
X99309523Y-93240533D02*
X99309523Y-93145295D01*
X99309523Y-93145295D02*
X99261904Y-93050057D01*
X99261904Y-93050057D02*
X99214285Y-93002438D01*
X99214285Y-93002438D02*
X99119047Y-92954819D01*
X99119047Y-92954819D02*
X98880952Y-92954819D01*
X98880952Y-92954819D02*
X98738095Y-93002438D01*
X98404761Y-92954819D02*
X98166666Y-93954819D01*
X98166666Y-93954819D02*
X97976190Y-93240533D01*
X97976190Y-93240533D02*
X97785714Y-93954819D01*
X97785714Y-93954819D02*
X97547619Y-92954819D01*
X96642857Y-93954819D02*
X97214285Y-93954819D01*
X96928571Y-93954819D02*
X96928571Y-92954819D01*
X96928571Y-92954819D02*
X97023809Y-93097676D01*
X97023809Y-93097676D02*
X97119047Y-93192914D01*
X97119047Y-93192914D02*
X97214285Y-93240533D01*
X95785714Y-92954819D02*
X95976190Y-92954819D01*
X95976190Y-92954819D02*
X96071428Y-93002438D01*
X96071428Y-93002438D02*
X96119047Y-93050057D01*
X96119047Y-93050057D02*
X96214285Y-93192914D01*
X96214285Y-93192914D02*
X96261904Y-93383390D01*
X96261904Y-93383390D02*
X96261904Y-93764342D01*
X96261904Y-93764342D02*
X96214285Y-93859580D01*
X96214285Y-93859580D02*
X96166666Y-93907200D01*
X96166666Y-93907200D02*
X96071428Y-93954819D01*
X96071428Y-93954819D02*
X95880952Y-93954819D01*
X95880952Y-93954819D02*
X95785714Y-93907200D01*
X95785714Y-93907200D02*
X95738095Y-93859580D01*
X95738095Y-93859580D02*
X95690476Y-93764342D01*
X95690476Y-93764342D02*
X95690476Y-93526247D01*
X95690476Y-93526247D02*
X95738095Y-93431009D01*
X95738095Y-93431009D02*
X95785714Y-93383390D01*
X95785714Y-93383390D02*
X95880952Y-93335771D01*
X95880952Y-93335771D02*
X96071428Y-93335771D01*
X96071428Y-93335771D02*
X96166666Y-93383390D01*
X96166666Y-93383390D02*
X96214285Y-93431009D01*
X96214285Y-93431009D02*
X96261904Y-93526247D01*
X60833332Y-44907200D02*
X60690475Y-44954819D01*
X60690475Y-44954819D02*
X60452380Y-44954819D01*
X60452380Y-44954819D02*
X60357142Y-44907200D01*
X60357142Y-44907200D02*
X60309523Y-44859580D01*
X60309523Y-44859580D02*
X60261904Y-44764342D01*
X60261904Y-44764342D02*
X60261904Y-44669104D01*
X60261904Y-44669104D02*
X60309523Y-44573866D01*
X60309523Y-44573866D02*
X60357142Y-44526247D01*
X60357142Y-44526247D02*
X60452380Y-44478628D01*
X60452380Y-44478628D02*
X60642856Y-44431009D01*
X60642856Y-44431009D02*
X60738094Y-44383390D01*
X60738094Y-44383390D02*
X60785713Y-44335771D01*
X60785713Y-44335771D02*
X60833332Y-44240533D01*
X60833332Y-44240533D02*
X60833332Y-44145295D01*
X60833332Y-44145295D02*
X60785713Y-44050057D01*
X60785713Y-44050057D02*
X60738094Y-44002438D01*
X60738094Y-44002438D02*
X60642856Y-43954819D01*
X60642856Y-43954819D02*
X60404761Y-43954819D01*
X60404761Y-43954819D02*
X60261904Y-44002438D01*
X59928570Y-43954819D02*
X59690475Y-44954819D01*
X59690475Y-44954819D02*
X59499999Y-44240533D01*
X59499999Y-44240533D02*
X59309523Y-44954819D01*
X59309523Y-44954819D02*
X59071428Y-43954819D01*
X58738094Y-44050057D02*
X58690475Y-44002438D01*
X58690475Y-44002438D02*
X58595237Y-43954819D01*
X58595237Y-43954819D02*
X58357142Y-43954819D01*
X58357142Y-43954819D02*
X58261904Y-44002438D01*
X58261904Y-44002438D02*
X58214285Y-44050057D01*
X58214285Y-44050057D02*
X58166666Y-44145295D01*
X58166666Y-44145295D02*
X58166666Y-44240533D01*
X58166666Y-44240533D02*
X58214285Y-44383390D01*
X58214285Y-44383390D02*
X58785713Y-44954819D01*
X58785713Y-44954819D02*
X58166666Y-44954819D01*
X42309523Y-82907200D02*
X42166666Y-82954819D01*
X42166666Y-82954819D02*
X41928571Y-82954819D01*
X41928571Y-82954819D02*
X41833333Y-82907200D01*
X41833333Y-82907200D02*
X41785714Y-82859580D01*
X41785714Y-82859580D02*
X41738095Y-82764342D01*
X41738095Y-82764342D02*
X41738095Y-82669104D01*
X41738095Y-82669104D02*
X41785714Y-82573866D01*
X41785714Y-82573866D02*
X41833333Y-82526247D01*
X41833333Y-82526247D02*
X41928571Y-82478628D01*
X41928571Y-82478628D02*
X42119047Y-82431009D01*
X42119047Y-82431009D02*
X42214285Y-82383390D01*
X42214285Y-82383390D02*
X42261904Y-82335771D01*
X42261904Y-82335771D02*
X42309523Y-82240533D01*
X42309523Y-82240533D02*
X42309523Y-82145295D01*
X42309523Y-82145295D02*
X42261904Y-82050057D01*
X42261904Y-82050057D02*
X42214285Y-82002438D01*
X42214285Y-82002438D02*
X42119047Y-81954819D01*
X42119047Y-81954819D02*
X41880952Y-81954819D01*
X41880952Y-81954819D02*
X41738095Y-82002438D01*
X41404761Y-81954819D02*
X41166666Y-82954819D01*
X41166666Y-82954819D02*
X40976190Y-82240533D01*
X40976190Y-82240533D02*
X40785714Y-82954819D01*
X40785714Y-82954819D02*
X40547619Y-81954819D01*
X39642857Y-82954819D02*
X40214285Y-82954819D01*
X39928571Y-82954819D02*
X39928571Y-81954819D01*
X39928571Y-81954819D02*
X40023809Y-82097676D01*
X40023809Y-82097676D02*
X40119047Y-82192914D01*
X40119047Y-82192914D02*
X40214285Y-82240533D01*
X38690476Y-82954819D02*
X39261904Y-82954819D01*
X38976190Y-82954819D02*
X38976190Y-81954819D01*
X38976190Y-81954819D02*
X39071428Y-82097676D01*
X39071428Y-82097676D02*
X39166666Y-82192914D01*
X39166666Y-82192914D02*
X39261904Y-82240533D01*
X117833332Y-44907200D02*
X117690475Y-44954819D01*
X117690475Y-44954819D02*
X117452380Y-44954819D01*
X117452380Y-44954819D02*
X117357142Y-44907200D01*
X117357142Y-44907200D02*
X117309523Y-44859580D01*
X117309523Y-44859580D02*
X117261904Y-44764342D01*
X117261904Y-44764342D02*
X117261904Y-44669104D01*
X117261904Y-44669104D02*
X117309523Y-44573866D01*
X117309523Y-44573866D02*
X117357142Y-44526247D01*
X117357142Y-44526247D02*
X117452380Y-44478628D01*
X117452380Y-44478628D02*
X117642856Y-44431009D01*
X117642856Y-44431009D02*
X117738094Y-44383390D01*
X117738094Y-44383390D02*
X117785713Y-44335771D01*
X117785713Y-44335771D02*
X117833332Y-44240533D01*
X117833332Y-44240533D02*
X117833332Y-44145295D01*
X117833332Y-44145295D02*
X117785713Y-44050057D01*
X117785713Y-44050057D02*
X117738094Y-44002438D01*
X117738094Y-44002438D02*
X117642856Y-43954819D01*
X117642856Y-43954819D02*
X117404761Y-43954819D01*
X117404761Y-43954819D02*
X117261904Y-44002438D01*
X116928570Y-43954819D02*
X116690475Y-44954819D01*
X116690475Y-44954819D02*
X116499999Y-44240533D01*
X116499999Y-44240533D02*
X116309523Y-44954819D01*
X116309523Y-44954819D02*
X116071428Y-43954819D01*
X115214285Y-43954819D02*
X115690475Y-43954819D01*
X115690475Y-43954819D02*
X115738094Y-44431009D01*
X115738094Y-44431009D02*
X115690475Y-44383390D01*
X115690475Y-44383390D02*
X115595237Y-44335771D01*
X115595237Y-44335771D02*
X115357142Y-44335771D01*
X115357142Y-44335771D02*
X115261904Y-44383390D01*
X115261904Y-44383390D02*
X115214285Y-44431009D01*
X115214285Y-44431009D02*
X115166666Y-44526247D01*
X115166666Y-44526247D02*
X115166666Y-44764342D01*
X115166666Y-44764342D02*
X115214285Y-44859580D01*
X115214285Y-44859580D02*
X115261904Y-44907200D01*
X115261904Y-44907200D02*
X115357142Y-44954819D01*
X115357142Y-44954819D02*
X115595237Y-44954819D01*
X115595237Y-44954819D02*
X115690475Y-44907200D01*
X115690475Y-44907200D02*
X115738094Y-44859580D01*
X98833332Y-44907200D02*
X98690475Y-44954819D01*
X98690475Y-44954819D02*
X98452380Y-44954819D01*
X98452380Y-44954819D02*
X98357142Y-44907200D01*
X98357142Y-44907200D02*
X98309523Y-44859580D01*
X98309523Y-44859580D02*
X98261904Y-44764342D01*
X98261904Y-44764342D02*
X98261904Y-44669104D01*
X98261904Y-44669104D02*
X98309523Y-44573866D01*
X98309523Y-44573866D02*
X98357142Y-44526247D01*
X98357142Y-44526247D02*
X98452380Y-44478628D01*
X98452380Y-44478628D02*
X98642856Y-44431009D01*
X98642856Y-44431009D02*
X98738094Y-44383390D01*
X98738094Y-44383390D02*
X98785713Y-44335771D01*
X98785713Y-44335771D02*
X98833332Y-44240533D01*
X98833332Y-44240533D02*
X98833332Y-44145295D01*
X98833332Y-44145295D02*
X98785713Y-44050057D01*
X98785713Y-44050057D02*
X98738094Y-44002438D01*
X98738094Y-44002438D02*
X98642856Y-43954819D01*
X98642856Y-43954819D02*
X98404761Y-43954819D01*
X98404761Y-43954819D02*
X98261904Y-44002438D01*
X97928570Y-43954819D02*
X97690475Y-44954819D01*
X97690475Y-44954819D02*
X97499999Y-44240533D01*
X97499999Y-44240533D02*
X97309523Y-44954819D01*
X97309523Y-44954819D02*
X97071428Y-43954819D01*
X96261904Y-44288152D02*
X96261904Y-44954819D01*
X96499999Y-43907200D02*
X96738094Y-44621485D01*
X96738094Y-44621485D02*
X96119047Y-44621485D01*
X79833332Y-44907200D02*
X79690475Y-44954819D01*
X79690475Y-44954819D02*
X79452380Y-44954819D01*
X79452380Y-44954819D02*
X79357142Y-44907200D01*
X79357142Y-44907200D02*
X79309523Y-44859580D01*
X79309523Y-44859580D02*
X79261904Y-44764342D01*
X79261904Y-44764342D02*
X79261904Y-44669104D01*
X79261904Y-44669104D02*
X79309523Y-44573866D01*
X79309523Y-44573866D02*
X79357142Y-44526247D01*
X79357142Y-44526247D02*
X79452380Y-44478628D01*
X79452380Y-44478628D02*
X79642856Y-44431009D01*
X79642856Y-44431009D02*
X79738094Y-44383390D01*
X79738094Y-44383390D02*
X79785713Y-44335771D01*
X79785713Y-44335771D02*
X79833332Y-44240533D01*
X79833332Y-44240533D02*
X79833332Y-44145295D01*
X79833332Y-44145295D02*
X79785713Y-44050057D01*
X79785713Y-44050057D02*
X79738094Y-44002438D01*
X79738094Y-44002438D02*
X79642856Y-43954819D01*
X79642856Y-43954819D02*
X79404761Y-43954819D01*
X79404761Y-43954819D02*
X79261904Y-44002438D01*
X78928570Y-43954819D02*
X78690475Y-44954819D01*
X78690475Y-44954819D02*
X78499999Y-44240533D01*
X78499999Y-44240533D02*
X78309523Y-44954819D01*
X78309523Y-44954819D02*
X78071428Y-43954819D01*
X77785713Y-43954819D02*
X77166666Y-43954819D01*
X77166666Y-43954819D02*
X77499999Y-44335771D01*
X77499999Y-44335771D02*
X77357142Y-44335771D01*
X77357142Y-44335771D02*
X77261904Y-44383390D01*
X77261904Y-44383390D02*
X77214285Y-44431009D01*
X77214285Y-44431009D02*
X77166666Y-44526247D01*
X77166666Y-44526247D02*
X77166666Y-44764342D01*
X77166666Y-44764342D02*
X77214285Y-44859580D01*
X77214285Y-44859580D02*
X77261904Y-44907200D01*
X77261904Y-44907200D02*
X77357142Y-44954819D01*
X77357142Y-44954819D02*
X77642856Y-44954819D01*
X77642856Y-44954819D02*
X77738094Y-44907200D01*
X77738094Y-44907200D02*
X77785713Y-44859580D01*
D11*
X113450000Y-92785943D02*
X113450000Y-92984381D01*
X114045314Y-92984381D02*
X112854686Y-92984381D01*
X112854686Y-92984381D02*
X112854686Y-94571885D01*
X112854686Y-93381257D02*
X114045314Y-93381257D01*
X114045314Y-94571885D02*
X114045314Y-92984381D01*
X113450000Y-94571885D02*
X113450000Y-94770323D01*
X112854686Y-94571885D02*
X114045314Y-94571885D01*
X81550000Y-64214057D02*
X81550000Y-64015619D01*
X80954686Y-64015619D02*
X82145314Y-64015619D01*
X82145314Y-64015619D02*
X82145314Y-62428115D01*
X82145314Y-63618743D02*
X80954686Y-63618743D01*
X80954686Y-62428115D02*
X80954686Y-64015619D01*
X81550000Y-62428115D02*
X81550000Y-62229677D01*
X82145314Y-62428115D02*
X80954686Y-62428115D01*
X100550000Y-45214057D02*
X100550000Y-45015619D01*
X99954686Y-45015619D02*
X101145314Y-45015619D01*
X101145314Y-45015619D02*
X101145314Y-43428115D01*
X101145314Y-44618743D02*
X99954686Y-44618743D01*
X99954686Y-43428115D02*
X99954686Y-45015619D01*
X100550000Y-43428115D02*
X100550000Y-43229677D01*
X101145314Y-43428115D02*
X99954686Y-43428115D01*
X43550000Y-64214057D02*
X43550000Y-64015619D01*
X42954686Y-64015619D02*
X44145314Y-64015619D01*
X44145314Y-64015619D02*
X44145314Y-62428115D01*
X44145314Y-63618743D02*
X42954686Y-63618743D01*
X42954686Y-62428115D02*
X42954686Y-64015619D01*
X43550000Y-62428115D02*
X43550000Y-62229677D01*
X44145314Y-62428115D02*
X42954686Y-62428115D01*
X43550000Y-45100620D02*
X43550000Y-44902182D01*
X42954686Y-44902182D02*
X44145314Y-44902182D01*
X44145314Y-44902182D02*
X44145314Y-43314678D01*
X44145314Y-44505306D02*
X42954686Y-44505306D01*
X42954686Y-43314678D02*
X42954686Y-44902182D01*
X43550000Y-43314678D02*
X43550000Y-43116240D01*
X44145314Y-43314678D02*
X42954686Y-43314678D01*
X100550000Y-83214057D02*
X100550000Y-83015619D01*
X99954686Y-83015619D02*
X101145314Y-83015619D01*
X101145314Y-83015619D02*
X101145314Y-81428115D01*
X101145314Y-82618743D02*
X99954686Y-82618743D01*
X99954686Y-81428115D02*
X99954686Y-83015619D01*
X100550000Y-81428115D02*
X100550000Y-81229677D01*
X101145314Y-81428115D02*
X99954686Y-81428115D01*
X81550000Y-45214057D02*
X81550000Y-45015619D01*
X80954686Y-45015619D02*
X82145314Y-45015619D01*
X82145314Y-45015619D02*
X82145314Y-43428115D01*
X82145314Y-44618743D02*
X80954686Y-44618743D01*
X80954686Y-43428115D02*
X80954686Y-45015619D01*
X81550000Y-43428115D02*
X81550000Y-43229677D01*
X82145314Y-43428115D02*
X80954686Y-43428115D01*
X81550000Y-83214057D02*
X81550000Y-83015619D01*
X80954686Y-83015619D02*
X82145314Y-83015619D01*
X82145314Y-83015619D02*
X82145314Y-81428115D01*
X82145314Y-82618743D02*
X80954686Y-82618743D01*
X80954686Y-81428115D02*
X80954686Y-83015619D01*
X81550000Y-81428115D02*
X81550000Y-81229677D01*
X82145314Y-81428115D02*
X80954686Y-81428115D01*
X119550000Y-83214057D02*
X119550000Y-83015619D01*
X118954686Y-83015619D02*
X120145314Y-83015619D01*
X120145314Y-83015619D02*
X120145314Y-81428115D01*
X120145314Y-82618743D02*
X118954686Y-82618743D01*
X118954686Y-81428115D02*
X118954686Y-83015619D01*
X119550000Y-81428115D02*
X119550000Y-81229677D01*
X120145314Y-81428115D02*
X118954686Y-81428115D01*
X119550000Y-64214057D02*
X119550000Y-64015619D01*
X118954686Y-64015619D02*
X120145314Y-64015619D01*
X120145314Y-64015619D02*
X120145314Y-62428115D01*
X120145314Y-63618743D02*
X118954686Y-63618743D01*
X118954686Y-62428115D02*
X118954686Y-64015619D01*
X119550000Y-62428115D02*
X119550000Y-62229677D01*
X120145314Y-62428115D02*
X118954686Y-62428115D01*
X100550000Y-64214057D02*
X100550000Y-64015619D01*
X99954686Y-64015619D02*
X101145314Y-64015619D01*
X101145314Y-64015619D02*
X101145314Y-62428115D01*
X101145314Y-63618743D02*
X99954686Y-63618743D01*
X99954686Y-62428115D02*
X99954686Y-64015619D01*
X100550000Y-62428115D02*
X100550000Y-62229677D01*
X101145314Y-62428115D02*
X99954686Y-62428115D01*
X94450000Y-92785943D02*
X94450000Y-92984381D01*
X95045314Y-92984381D02*
X93854686Y-92984381D01*
X93854686Y-92984381D02*
X93854686Y-94571885D01*
X93854686Y-93381257D02*
X95045314Y-93381257D01*
X95045314Y-94571885D02*
X95045314Y-92984381D01*
X94450000Y-94571885D02*
X94450000Y-94770323D01*
X93854686Y-94571885D02*
X95045314Y-94571885D01*
X62550000Y-45214057D02*
X62550000Y-45015619D01*
X61954686Y-45015619D02*
X63145314Y-45015619D01*
X63145314Y-45015619D02*
X63145314Y-43428115D01*
X63145314Y-44618743D02*
X61954686Y-44618743D01*
X61954686Y-43428115D02*
X61954686Y-45015619D01*
X62550000Y-43428115D02*
X62550000Y-43229677D01*
X63145314Y-43428115D02*
X61954686Y-43428115D01*
X43550000Y-83214057D02*
X43550000Y-83015619D01*
X42954686Y-83015619D02*
X44145314Y-83015619D01*
X44145314Y-83015619D02*
X44145314Y-81428115D01*
X44145314Y-82618743D02*
X42954686Y-82618743D01*
X42954686Y-81428115D02*
X42954686Y-83015619D01*
X43550000Y-81428115D02*
X43550000Y-81229677D01*
X44145314Y-81428115D02*
X42954686Y-81428115D01*
X119550000Y-45214057D02*
X119550000Y-45015619D01*
X118954686Y-45015619D02*
X120145314Y-45015619D01*
X120145314Y-45015619D02*
X120145314Y-43428115D01*
X120145314Y-44618743D02*
X118954686Y-44618743D01*
X118954686Y-43428115D02*
X118954686Y-45015619D01*
X119550000Y-43428115D02*
X119550000Y-43229677D01*
X120145314Y-43428115D02*
X118954686Y-43428115D01*
X62550000Y-83214057D02*
X62550000Y-83015619D01*
X61954686Y-83015619D02*
X63145314Y-83015619D01*
X63145314Y-83015619D02*
X63145314Y-81428115D01*
X63145314Y-82618743D02*
X61954686Y-82618743D01*
X61954686Y-81428115D02*
X61954686Y-83015619D01*
X62550000Y-81428115D02*
X62550000Y-81229677D01*
X63145314Y-81428115D02*
X61954686Y-81428115D01*
X62550000Y-64214057D02*
X62550000Y-64015619D01*
X61954686Y-64015619D02*
X63145314Y-64015619D01*
X63145314Y-64015619D02*
X63145314Y-62428115D01*
X63145314Y-63618743D02*
X61954686Y-63618743D01*
X61954686Y-62428115D02*
X61954686Y-64015619D01*
X62550000Y-62428115D02*
X62550000Y-62229677D01*
X63145314Y-62428115D02*
X61954686Y-62428115D01*
%LPC*%
D12*
X35380000Y-106240000D03*
X37920000Y-106240000D03*
X40460000Y-106240000D03*
X43000000Y-106240000D03*
X45540000Y-106240000D03*
X48080000Y-106240000D03*
X50620000Y-106240000D03*
X50620000Y-91000000D03*
X48080000Y-91000000D03*
X45540000Y-91000000D03*
X43000000Y-91000000D03*
X40460000Y-91000000D03*
X37920000Y-91000000D03*
X35380000Y-91000000D03*
D13*
X42683000Y-102565000D03*
X40778000Y-102565000D03*
D14*
X113450000Y-92053125D03*
X113450000Y-95503125D03*
D15*
X44250000Y-96000000D03*
D16*
X44250000Y-98000000D03*
D17*
X92420000Y-59500000D03*
D18*
X93690000Y-56960000D03*
D19*
X97500000Y-59500000D03*
D18*
X100040000Y-54420000D03*
D17*
X102580000Y-59500000D03*
D20*
X90500000Y-56920000D03*
D21*
X103250000Y-54480000D03*
D17*
X121580000Y-97500000D03*
D18*
X120310000Y-100040000D03*
D19*
X116500000Y-97500000D03*
D18*
X113960000Y-102580000D03*
D17*
X111420000Y-97500000D03*
D20*
X123500000Y-100080000D03*
D21*
X110750000Y-102520000D03*
D17*
X35420000Y-40500000D03*
D18*
X36690000Y-37960000D03*
D19*
X40500000Y-40500000D03*
D18*
X43040000Y-35420000D03*
D17*
X45580000Y-40500000D03*
D20*
X33500000Y-37920000D03*
D21*
X46250000Y-35480000D03*
D17*
X54420000Y-59500000D03*
D18*
X55690000Y-56960000D03*
D19*
X59500000Y-59500000D03*
D18*
X62040000Y-54420000D03*
D17*
X64580000Y-59500000D03*
D20*
X52500000Y-56920000D03*
D21*
X65250000Y-54480000D03*
D17*
X73420000Y-59500000D03*
D18*
X74690000Y-56960000D03*
D19*
X78500000Y-59500000D03*
D18*
X81040000Y-54420000D03*
D17*
X83580000Y-59500000D03*
D20*
X71500000Y-56920000D03*
D21*
X84250000Y-54480000D03*
D17*
X73420000Y-78500000D03*
D18*
X74690000Y-75960000D03*
D19*
X78500000Y-78500000D03*
D18*
X81040000Y-73420000D03*
D17*
X83580000Y-78500000D03*
D20*
X71500000Y-75920000D03*
D21*
X84250000Y-73480000D03*
D22*
X32350000Y-71500000D03*
X32350000Y-69000000D03*
X32350000Y-66500000D03*
D17*
X35420000Y-59500000D03*
D18*
X36690000Y-56960000D03*
D19*
X40500000Y-59500000D03*
D18*
X43040000Y-54420000D03*
D17*
X45580000Y-59500000D03*
D20*
X33500000Y-56920000D03*
D21*
X46250000Y-54480000D03*
D17*
X92420000Y-78500000D03*
D18*
X93690000Y-75960000D03*
D19*
X97500000Y-78500000D03*
D18*
X100040000Y-73420000D03*
D17*
X102580000Y-78500000D03*
D20*
X90500000Y-75920000D03*
D21*
X103250000Y-73480000D03*
D17*
X111420000Y-78500000D03*
D18*
X112690000Y-75960000D03*
D19*
X116500000Y-78500000D03*
D18*
X119040000Y-73420000D03*
D17*
X121580000Y-78500000D03*
D20*
X109500000Y-75920000D03*
D21*
X122250000Y-73480000D03*
D14*
X81550000Y-64946875D03*
X81550000Y-61496875D03*
D17*
X54420000Y-78500000D03*
D18*
X55690000Y-75960000D03*
D19*
X59500000Y-78500000D03*
D18*
X62040000Y-73420000D03*
D17*
X64580000Y-78500000D03*
D20*
X52500000Y-75920000D03*
D21*
X65250000Y-73480000D03*
D14*
X100550000Y-45946875D03*
X100550000Y-42496875D03*
X43550000Y-64946875D03*
X43550000Y-61496875D03*
X43550000Y-45833438D03*
X43550000Y-42383438D03*
X100550000Y-83946875D03*
X100550000Y-80496875D03*
X81550000Y-45946875D03*
X81550000Y-42496875D03*
X81550000Y-83946875D03*
X81550000Y-80496875D03*
X119550000Y-83946875D03*
X119550000Y-80496875D03*
D17*
X111420000Y-59500000D03*
D18*
X112690000Y-56960000D03*
D19*
X116500000Y-59500000D03*
D18*
X119040000Y-54420000D03*
D17*
X121580000Y-59500000D03*
D20*
X109500000Y-56920000D03*
D21*
X122250000Y-54480000D03*
D14*
X119550000Y-64946875D03*
X119550000Y-61496875D03*
X100550000Y-64946875D03*
X100550000Y-61496875D03*
X94450000Y-92053125D03*
X94450000Y-95503125D03*
X62550000Y-45946875D03*
X62550000Y-42496875D03*
D17*
X102580000Y-97500000D03*
D18*
X101310000Y-100040000D03*
D19*
X97500000Y-97500000D03*
D18*
X94960000Y-102580000D03*
D17*
X92420000Y-97500000D03*
D20*
X104500000Y-100080000D03*
D21*
X91750000Y-102520000D03*
D14*
X43550000Y-83946875D03*
X43550000Y-80496875D03*
X119550000Y-45946875D03*
X119550000Y-42496875D03*
X62550000Y-83946875D03*
X62550000Y-80496875D03*
D17*
X54420000Y-40500000D03*
D18*
X55690000Y-37960000D03*
D19*
X59500000Y-40500000D03*
D18*
X62040000Y-35420000D03*
D17*
X64580000Y-40500000D03*
D20*
X52500000Y-37920000D03*
D21*
X65250000Y-35480000D03*
D17*
X35420000Y-78500000D03*
D18*
X36690000Y-75960000D03*
D19*
X40500000Y-78500000D03*
D18*
X43040000Y-73420000D03*
D17*
X45580000Y-78500000D03*
D20*
X33500000Y-75920000D03*
D21*
X46250000Y-73480000D03*
D17*
X111420000Y-40500000D03*
D18*
X112690000Y-37960000D03*
D19*
X116500000Y-40500000D03*
D18*
X119040000Y-35420000D03*
D17*
X121580000Y-40500000D03*
D20*
X109500000Y-37920000D03*
D21*
X122250000Y-35480000D03*
D14*
X62550000Y-64946875D03*
X62550000Y-61496875D03*
D17*
X92420000Y-40500000D03*
D18*
X93690000Y-37960000D03*
D19*
X97500000Y-40500000D03*
D18*
X100040000Y-35420000D03*
D17*
X102580000Y-40500000D03*
D20*
X90500000Y-37920000D03*
D21*
X103250000Y-35480000D03*
D17*
X73420000Y-40500000D03*
D18*
X74690000Y-37960000D03*
D19*
X78500000Y-40500000D03*
D18*
X81040000Y-35420000D03*
D17*
X83580000Y-40500000D03*
D20*
X71500000Y-37920000D03*
D21*
X84250000Y-35480000D03*
%LPD*%
M02*
